<svg width="20" height="15" viewBox="0 0 20 15" fill="none" xmlns="http://www.w3.org/2000/svg">
<path fill-rule="evenodd" clip-rule="evenodd" d="M2.45564 1.74218C2.45564 1.74218 0.73216 0.364682 0.613631 3.76679C0.495102 6.40327 0.498305 11.5224 1.71884 13.9411C2.2346 14.8509 2.92335 14.5722 4.20475 13.6656C5.31956 12.8423 9.35276 9.12624 11.0602 7.49566C12.7677 5.86508 16.2307 1.18798 16.9514 4.36585C17.2366 5.7017 17.5889 6.83574 17.3199 9.79897C17.2366 10.712 16.8457 11.4039 15.0646 10.1674C13.7191 9.30243 12.4409 8.37341 12.4409 8.37341C12.4409 8.37341 12.1943 7.93133 11.6112 8.64892C11.1531 9.22234 10.9225 9.36329 11.6561 9.79897C12.3929 10.2346 16.1185 12.8038 17.5473 13.2043C18.7262 13.5471 19.3989 13.5406 19.4342 11.2245C19.4277 9.38572 19.322 4.12238 18.6525 1.87993C18.1464 0.483211 17.4031 -0.15108 15.7982 1.41863C14.1932 2.98834 9.13172 7.89609 6.3639 10.1193C4.5283 11.4968 3.74344 12.7398 3.05149 10.4429C2.56456 8.70338 1.93347 3.28947 3.92604 4.321C5.1722 4.91685 5.79368 4.91364 5.30675 5.28845C4.81982 5.66006 3.41989 6.94466 3.41989 6.94466C3.41989 6.94466 2.98742 7.29384 3.18924 8.04986C3.39106 8.57844 3.39106 8.84113 4.47704 7.81921C5.56303 6.7973 6.3639 6.02525 6.3639 6.02525C6.3639 6.02525 6.53689 5.75296 7.05265 6.25591C7.56842 6.75885 7.65171 6.89981 7.65171 6.89981C7.65171 6.89981 7.78946 7.27462 8.34046 6.62431C8.89466 5.974 9.25025 5.57677 8.20271 4.9681C7.15837 4.35303 2.45564 1.74218 2.45564 1.74218Z" fill="black"/>
</svg>
