<svg width="14" height="11" viewBox="0 0 14 11" fill="none" xmlns="http://www.w3.org/2000/svg">
<path d="M2.87109 3.16671C3.15157 2.86028 3.30873 2.68994 3.58973 2.38332V1.07831C3.30942 0.772259 3.15227 0.600781 2.87178 0.294922H0.717946L0 1.07831V2.38332L0.717946 3.16671H2.87109ZM0.717772 1.07812H2.87126V2.38408H0.717772V1.07812Z" fill="white"/>
<path d="M3.58973 7.44102V6.75586H0.717946L0 7.44102V8.58351L0.717946 9.26867H2.87109L3.58973 8.58301V7.66935H0.957145V8.35468H2.87126V8.58301H0.717772V7.44052L3.58973 7.44102Z" fill="white"/>
<path d="M11.8456 0.294922H8.25586V1.01287H11.8456V0.294922Z" fill="white"/>
<path d="M7.10822 8.35483H7.89792V7.44116L7.10822 6.75586H3.94922V9.26867H4.73911V7.44116H7.10822V8.35483Z" fill="white"/>
<path d="M8.97377 2.14024H11.8456V1.37109H8.97377L8.25586 2.14024V3.16596H8.97377V2.14024Z" fill="white"/>
<path d="M9.00499 5.61338V4.30768H11.2527V4.56863H9.25464V5.35167H11.2527L12.0019 4.56863V4.30824L11.2527 3.52539H9.00499L8.25586 4.30843V5.61413L9.00499 6.39717H13.9994V5.61338H9.00499Z" fill="white"/>
<path d="M8.97381 6.75586H8.25586V9.26867H8.97381V6.75586Z" fill="white"/>
<path d="M7.89792 0.294922H3.94922V1.01287H7.89792V0.294922Z" fill="white"/>
<path d="M4.73911 2.14024H7.89792V1.37109H4.73911C4.43109 1.67154 4.25781 1.84017 3.94922 2.14024V3.16596H4.73911V2.14024Z" fill="white"/>
<path d="M1.50174 5.62902H3.59053V6.39838H1.50193L0.71875 5.62902V4.60352H1.50174V5.62902Z" fill="white"/>
<path d="M5.02539 7.47461L8.23489 10.7054H9.33307L6.12375 7.47461H5.02539Z" fill="white"/>
<path d="M7.10822 3.52539V4.56959H4.73911V3.52539H3.94922V6.39717H4.73911V5.35279H7.10822V6.39717H7.89792V3.52539H7.10822Z" fill="white"/>
<path d="M12.1336 6.75586H8.97461V7.44116H12.1336V8.58387H9.76412V7.66953H8.97461V9.26867H12.1336L12.9233 8.58337V7.44066L12.1336 6.75586Z" fill="white"/>
<path d="M3.58973 3.52539H0V4.24334H3.58973V3.52539Z" fill="white"/>
<path d="M13.9999 1.19357C13.9999 1.35406 13.96 1.50355 13.8799 1.64168C13.7997 1.77999 13.6905 1.88922 13.5518 1.96937C13.4131 2.04971 13.2635 2.08979 13.1025 2.08979C12.9415 2.08979 12.7928 2.04971 12.6538 1.96937C12.5148 1.88903 12.4053 1.7798 12.3252 1.64168C12.245 1.50355 12.2051 1.35368 12.2051 1.19226C12.2051 1.03084 12.245 0.882088 12.3252 0.743591C12.4053 0.604908 12.5146 0.49549 12.6532 0.415337C12.7919 0.334998 12.9415 0.294922 13.1025 0.294922C13.2635 0.294922 13.4131 0.334998 13.5518 0.415337C13.6905 0.495677 13.7997 0.605095 13.8799 0.743591C13.96 0.882275 13.9999 1.03214 13.9999 1.19357ZM13.8148 1.19599C13.8148 0.997098 13.7455 0.828031 13.6068 0.689162C13.4681 0.550106 13.3008 0.480578 13.1049 0.480578C12.909 0.480578 12.7389 0.54992 12.5995 0.688603C12.4601 0.827286 12.3904 0.994488 12.3904 1.19021C12.3904 1.31715 12.4218 1.43496 12.4846 1.54381C12.5475 1.65267 12.6345 1.73879 12.7452 1.80217C12.856 1.86554 12.9752 1.89723 13.1025 1.89723C13.2298 1.89723 13.3477 1.86573 13.4587 1.80273C13.5696 1.73972 13.6566 1.65398 13.7198 1.54549C13.783 1.43701 13.8146 1.32051 13.8146 1.19599H13.8148ZM12.7311 0.702583H13.1657C13.2572 0.702583 13.3243 0.712835 13.3672 0.733153C13.4101 0.753471 13.4447 0.785718 13.4709 0.829522C13.4971 0.873327 13.5101 0.926265 13.5101 0.988151C13.5101 1.04072 13.5022 1.08359 13.4862 1.11677C13.4702 1.15013 13.4399 1.18275 13.3955 1.21482C13.4313 1.23513 13.4561 1.25806 13.4693 1.2836C13.4825 1.30913 13.4908 1.35387 13.4938 1.41818C13.4992 1.54027 13.5046 1.61148 13.5096 1.63142C13.5146 1.65137 13.5285 1.67038 13.5512 1.68846H13.3053C13.2943 1.66181 13.2873 1.63944 13.2843 1.62154C13.2811 1.60346 13.2793 1.57252 13.2784 1.52872C13.2759 1.44185 13.2713 1.38817 13.2642 1.36785C13.2572 1.34753 13.2449 1.33225 13.2272 1.322C13.2096 1.31174 13.1743 1.30671 13.1213 1.30671H12.9467V1.68846H12.7311V0.702769V0.702583ZM12.9467 0.891781V1.12553H13.1272C13.1968 1.12553 13.2429 1.11621 13.2655 1.09738C13.2882 1.07856 13.2995 1.04836 13.2995 1.00698C13.2995 0.965596 13.2884 0.935958 13.2661 0.91825C13.2438 0.900542 13.1979 0.891781 13.1283 0.891781H12.9467Z" fill="white"/>
</svg>
