<svg width="8" height="17" viewBox="0 0 8 17" fill="none" xmlns="http://www.w3.org/2000/svg">
<path d="M1.76109 14.8901C1.69553 15.0323 1.6582 15.1905 1.6582 15.3567C1.6582 15.9877 2.18267 16.4996 2.82915 16.4996C3.32083 16.4996 3.7415 16.2028 3.9145 15.7833L7.40912 7.8244C7.47468 7.6822 7.51201 7.524 7.51201 7.3578C7.51201 6.72677 6.98754 6.21484 6.34106 6.21484C5.84938 6.21484 5.42871 6.51169 5.25571 6.93119L1.76109 14.8901Z" fill="black"/>
<path d="M0.591171 9.17614C0.525613 9.31834 0.488281 9.47654 0.488281 9.64274C0.488281 10.2738 1.01275 10.7857 1.65922 10.7857C2.15091 10.7857 2.57158 10.4888 2.74458 10.0693L6.23919 2.10956C6.30475 1.96735 6.34208 1.80915 6.34208 1.64295C6.34208 1.01193 5.81762 0.5 5.17114 0.5C4.67946 0.5 4.25879 0.796848 4.08579 1.21635L0.591171 9.17614Z" fill="black"/>
</svg>
