<svg width="14" height="21" viewBox="0 0 14 21" fill="none" xmlns="http://www.w3.org/2000/svg">
<g clip-path="url(#clip0_8411_8172)">
<path fill-rule="evenodd" clip-rule="evenodd" d="M0 2.03852V14.3774C0.000141681 14.6079 0.051218 14.8354 0.149456 15.0431C0.247693 15.2508 0.390582 15.4334 0.567568 15.5775L6.29054 20.2469C6.49187 20.4107 6.74211 20.5 7 20.5C7.25789 20.5 7.50812 20.4107 7.70949 20.2469L13.4324 15.5775C13.6094 15.4334 13.7523 15.2508 13.8505 15.0431C13.9488 14.8354 13.9999 14.6079 14 14.3774V2.03852C14 1.63048 13.8406 1.23915 13.5567 0.950621C13.2729 0.662093 12.8879 0.5 12.4865 0.5H1.51351C1.1121 0.5 0.727136 0.662093 0.443298 0.950621C0.159459 1.23915 0 1.63048 0 2.03852Z" fill="#004DE5"/>
<path d="M11.0531 7.61001V4.91427C11.0531 4.55679 10.9164 4.21396 10.6731 3.96119C10.4297 3.70841 10.0996 3.56641 9.75554 3.56641H4.24092C3.89678 3.56641 3.56675 3.70841 3.32341 3.96119C3.08007 4.21396 2.94336 4.55679 2.94336 4.91427V12.7361C2.94348 12.9379 2.98727 13.1373 3.07149 13.3192C3.15571 13.5012 3.27821 13.6612 3.42994 13.7874L5.43791 15.4621C5.46174 15.4822 5.49057 15.4948 5.52106 15.4986C5.55154 15.5023 5.58242 15.497 5.6101 15.4832C5.63779 15.4695 5.66115 15.4478 5.67747 15.4208C5.69378 15.3938 5.70239 15.3625 5.70228 15.3307V9.80027C5.70228 9.75554 5.71938 9.71274 5.74979 9.68114C5.78021 9.64954 5.82146 9.63174 5.86448 9.63174H7.32425C7.58233 9.63174 7.82988 9.73827 8.01234 9.92787C8.19486 10.1174 8.29738 10.3745 8.29738 10.6427V15.3307C8.29744 15.3624 8.30608 15.3935 8.32237 15.4203C8.33859 15.4472 8.36188 15.4687 8.38942 15.4825C8.41697 15.4962 8.44765 15.5016 8.478 15.4979C8.50836 15.4943 8.53714 15.4819 8.56096 15.4621L10.5689 13.7874C10.7207 13.6612 10.8432 13.5012 10.9274 13.3192C11.0116 13.1373 11.0554 12.9379 11.0555 12.7361V10.3057C11.0555 9.94821 10.9188 9.60541 10.6755 9.35261C10.4321 9.09987 10.1021 8.95787 9.75796 8.95787C10.1017 8.95714 10.4311 8.81487 10.6739 8.56214C10.9167 8.30947 11.0531 7.96701 11.0531 7.61001ZM7.32261 8.28394H5.86286C5.81984 8.28394 5.77859 8.26614 5.74817 8.23454C5.71775 8.20294 5.70067 8.16014 5.70067 8.11541V5.08275C5.70067 5.03806 5.71775 4.99521 5.74817 4.96361C5.77859 4.93201 5.81984 4.91427 5.86286 4.91427H8.13356C8.17661 4.91427 8.21783 4.93201 8.24825 4.96361C8.27867 4.99521 8.29574 5.03806 8.29574 5.08275V7.27301C8.29574 7.54114 8.19323 7.79827 8.01077 7.98781C7.82825 8.17741 7.5807 8.28394 7.32261 8.28394Z" fill="url(#paint0_linear_8411_8172)"/>
</g>
<defs>
<linearGradient id="paint0_linear_8411_8172" x1="6.99943" y1="3.56641" x2="6.99943" y2="15.4997" gradientUnits="userSpaceOnUse">
<stop stop-color="white"/>
<stop offset="0.458333" stop-color="white"/>
<stop offset="1" stop-color="white"/>
</linearGradient>
<clipPath id="clip0_8411_8172">
<rect width="14" height="20" fill="white" transform="translate(0 0.5)"/>
</clipPath>
</defs>
</svg>
