<svg width="60" height="60" viewBox="0 0 60 60" fill="none" xmlns="http://www.w3.org/2000/svg">
<path opacity="0.1" d="M30 60C46.5685 60 60 46.5685 60 30C60 13.4315 46.5685 0 30 0C13.4315 0 0 13.4315 0 30C0 46.5685 13.4315 60 30 60Z" fill="white"/>
<path opacity="0.25" d="M48.6062 19.7317C47.115 18.2097 45.1578 17.2557 43.061 17.0289C40.9642 16.8022 38.8547 17.3163 37.0843 18.4856C39.0021 20.7083 40.0193 23.5929 39.9295 26.5536C39.8397 29.5143 38.6495 32.3291 36.6007 34.4263L31.019 40.1254L32.8921 42.0378L33.6586 41.2553L35.575 43.212L34.8086 43.9946L36.3418 45.5601L48.6065 33.0377C50.3345 31.2731 51.3051 28.8799 51.3051 26.3846C51.305 23.8893 50.3342 21.4962 48.6062 19.7317Z" fill="black"/>
<path opacity="0.25" d="M35.0497 19.5388C34.1941 18.6652 33.1783 17.9722 32.0604 17.4994C30.9424 17.0266 29.7442 16.7832 28.5342 16.7832C27.3241 16.7832 26.1259 17.0266 25.008 17.4994C23.89 17.9722 22.8742 18.6652 22.0186 19.5388L9.75391 32.0613L11.2872 33.6264L12.0537 32.8438L13.9701 34.8007L13.2037 35.5832L15.1202 37.54L15.8867 36.7574L18.1864 39.1055L17.4199 39.8881L19.3365 41.8449L20.1029 41.0623L22.0195 43.0188L21.253 43.8013L22.7862 45.3668L35.0509 32.8442C36.7785 31.0795 37.749 28.6865 37.7488 26.1913C37.7486 23.6961 36.7777 21.3032 35.0497 19.5388Z" fill="black"/>
<path d="M47.5466 18.6497C46.0555 17.1276 44.0982 16.1737 42.0015 15.9469C39.9047 15.7201 37.7952 16.2343 36.0248 17.4036C37.9426 19.6262 38.9599 22.5109 38.87 25.4716C38.7802 28.4324 37.59 31.2472 35.5411 33.3444L29.9595 39.0434L31.8325 40.9558L32.599 40.1733L34.5155 42.13L33.749 42.9126L35.2823 44.4781L47.547 31.9556C49.2749 30.191 50.2456 27.7978 50.2455 25.3025C50.2455 22.8073 49.2747 20.4142 47.5466 18.6497Z" fill="#D7D7D7"/>
<path d="M47.5466 18.6497C46.0555 17.1276 44.0982 16.1737 42.0015 15.9469C39.9047 15.7201 37.7952 16.2343 36.0248 17.4036C37.9426 19.6262 38.9599 22.5109 38.87 25.4716C38.7802 28.4324 37.59 31.2472 35.5411 33.3444L29.9595 39.0434L30.7732 39.8742L31.5395 39.0916L34.5155 42.13L33.749 42.9126L34.2225 43.396L46.4873 30.8735C50.0858 27.199 51.1451 22.3238 47.5466 18.6497Z" fill="white"/>
<path d="M33.9917 18.4565C33.1361 17.5829 32.1203 16.8899 31.0023 16.4171C29.8844 15.9443 28.6862 15.7009 27.4761 15.7009C26.2661 15.7009 25.0679 15.9443 23.9499 16.4171C22.832 16.8899 21.8162 17.5829 20.9605 18.4565L8.6958 30.9791L10.2287 32.5445L10.9952 31.762L12.9117 33.7188L12.1452 34.5014L14.0617 36.4581L14.8281 35.6756L17.1279 38.0237L16.3614 38.8062L18.278 40.763L19.0444 39.9804L20.961 41.9372L20.1945 42.7198L21.7278 44.2853L33.9924 31.7628C35.7202 29.998 36.6908 27.6048 36.6906 25.1095C36.6905 22.6142 35.7197 20.2211 33.9917 18.4565Z" fill="#D7D7D7"/>
<path d="M33.9917 18.4565C33.1361 17.5829 32.1203 16.8899 31.0023 16.4171C29.8844 15.9443 28.6862 15.7009 27.4761 15.7009C26.2661 15.7009 25.0679 15.9443 23.9499 16.4171C22.832 16.8899 21.8162 17.5829 20.9605 18.4565L8.6958 30.9791L9.16933 31.4625L9.93578 30.6799L12.9117 33.7184L12.1452 34.501L13.0019 35.3758L13.7684 34.5932L17.1275 38.0229L16.3611 38.8055L17.2178 39.6802L17.9843 38.8976L20.9601 41.9361L20.1937 42.7187L20.6672 43.2021L32.9319 30.6796C36.5307 27.0058 37.5902 22.1307 33.9917 18.4565Z" fill="white"/>
</svg>
