<svg width="60" height="60" viewBox="0 0 60 60" fill="none" xmlns="http://www.w3.org/2000/svg">
<g clip-path="url(#clip0_3865_6090)">
<circle cx="30" cy="30" r="30" fill="white" fill-opacity="0.1"/>
<path fill-rule="evenodd" clip-rule="evenodd" d="M29.9987 14C36.9474 14 38.8314 14.1623 41.6568 14.4868H41.6556C42.958 14.6368 44.002 15.6059 43.905 16.9186L42.8643 31.0957C42.5387 31.1901 42.1836 31.3092 41.7853 31.4429C39.6978 32.1434 36.4253 33.2417 29.9988 33.2417C23.5724 33.2417 20.2999 32.1434 18.2124 31.4429C17.8136 31.309 17.458 31.1897 17.132 31.0953L16.0913 16.9186C15.9955 15.6059 17.0361 14.6133 18.3407 14.4868C21.1316 14.216 24.0371 14 29.9987 14ZM17.6307 37.8885L17.6344 37.9387L17.725 37.9712C17.6927 37.9433 17.6613 37.9157 17.6307 37.8885ZM27.9392 41.6316L29.9976 42.3693L32.0533 41.6327C31.4015 41.6793 30.7167 41.7044 29.9977 41.7044C29.278 41.7044 28.5922 41.6789 27.9392 41.6316ZM42.2811 37.9677L42.362 37.9387L42.3653 37.8933C42.3379 37.9178 42.3098 37.9427 42.2811 37.9677Z" fill="white"/>
<path fill-rule="evenodd" clip-rule="evenodd" d="M16.532 33.8243L16.6853 36.6169C16.6953 36.8072 16.7666 36.9862 16.8869 37.1328C17.7281 38.1512 21.4993 41.7044 29.9977 41.7044C38.4961 41.7044 42.2217 38.1971 43.0941 37.1518C43.2255 36.9941 43.3013 36.7982 43.3135 36.5923L43.4655 33.8262C44.4773 33.271 45.5217 32.6437 45.5217 32.6437C47.1639 31.754 48.9966 33.0321 49 34.9066C49.0056 37.9393 46.6359 41.056 43.4395 43.0201C39.8353 45.2348 34.4553 46.1535 30 46.1535C25.5447 46.1535 20.1647 45.2348 16.5605 43.0201C13.3641 41.056 10.9944 37.9404 11 34.9066C11.0034 33.0321 12.8361 31.754 14.4783 32.6437C14.4783 32.6437 15.521 33.2695 16.532 33.8243Z" fill="white"/>
</g>
<defs>
<clipPath id="clip0_3865_6090">
<rect width="60" height="60" fill="white"/>
</clipPath>
</defs>
</svg>
