<svg width="60" height="60" viewBox="0 0 60 60" fill="none" xmlns="http://www.w3.org/2000/svg">
<path d="M30 60C46.5685 60 60 46.5685 60 30C60 13.4315 46.5685 0 30 0C13.4315 0 0 13.4315 0 30C0 46.5685 13.4315 60 30 60Z" fill="white" fill-opacity="0.1"/>
<path d="M30.9351 7.5V24.1312L44.9919 30.4125L30.9351 7.5Z" fill="#BDBDBD"/>
<path d="M30.9337 7.5L16.875 30.4125L30.9337 24.1312V7.5Z" fill="white"/>
<path d="M30.9351 41.1913V52.4919L45.0013 33.0312L30.9351 41.1913Z" fill="#BDBDBD"/>
<path d="M30.9337 52.4919V41.1894L16.875 33.0312L30.9337 52.4919Z" fill="white"/>
<path d="M30.9351 38.5761L44.9919 30.4142L30.9351 24.1367V38.5761Z" fill="#B0B0B0"/>
<path d="M16.875 30.4142L30.9337 38.5761V24.1367L16.875 30.4142Z" fill="#D5D5D5"/>
</svg>
