<svg width="60" height="60" viewBox="0 0 60 60" fill="none" xmlns="http://www.w3.org/2000/svg">
<g clip-path="url(#clip0_3753_5855)">
<path d="M38.4998 15L5.4998 47.5C-4.0002 34 -1.0002 15 12.4998 5.50005C25.9998 -3.99995 44.9998 -0.999953 54.4998 12.5C54.9998 13.5 55.4998 14 55.9998 15H38.4998Z" fill="white" fill-opacity="0.1"/>
<path d="M41.5 23L11 53.5C10 53 9.5 52 8.5 51.5L40 20H58C58.5 21 58.5 22 59 23H41.5ZM47 35.5H59.5C56.5 52 40.5 62.5 24.5 59C24 59 24 59 23.5 59C23 59 47 35.5 47 35.5Z" fill="white" fill-opacity="0.1"/>
<path d="M60 30C60 30.5 60 30.5 60 31H45L18.5 57.5C17.5 57 16.5 56.5 15.5 56L44 27.5H60C60 28.5 60 29 60 30Z" fill="white" fill-opacity="0.1"/>
</g>
<defs>
<clipPath id="clip0_3753_5855">
<rect width="60" height="60" fill="white"/>
</clipPath>
</defs>
</svg>
