<svg width="60" height="60" viewBox="0 0 60 60" fill="none" xmlns="http://www.w3.org/2000/svg">
<path d="M30 60C46.6251 60 60 46.6251 60 30C60 13.3749 46.6251 0 30 0C13.3749 0 0 13.3749 0 30C0 46.6251 13.3749 60 30 60Z" fill="white" fill-opacity="0.1"/>
<path d="M38.2499 34.75C38.2499 30.3751 35.6249 28.8751 30.3749 28.2502C26.6249 27.7501 25.8749 26.7502 25.8749 25C25.8749 23.2498 27.125 22.1251 29.6249 22.1251C31.8749 22.1251 33.125 22.8751 33.7499 24.7501C33.875 25.1251 34.25 25.375 34.625 25.375H36.6248C37.1249 25.375 37.4999 25 37.4999 24.5002V24.3751C36.9998 21.625 34.7498 19.5001 31.8749 19.2502V16.2502C31.8749 15.7501 31.4999 15.3751 30.875 15.25H29C28.4999 15.25 28.1249 15.625 27.9998 16.2502V19.1251C24.2498 19.6252 21.875 22.1251 21.875 25.2502C21.875 29.3752 24.3749 31 29.6249 31.6252C33.125 32.2501 34.25 33.0001 34.25 35.0002C34.25 37.0003 32.4998 38.3752 30.125 38.3752C26.8748 38.3752 25.7498 37 25.3748 35.125C25.25 34.6252 24.875 34.375 24.5 34.375H22.3748C21.875 34.375 21.5 34.75 21.5 35.2501V35.3752C21.9998 38.5 23.9999 40.75 28.1249 41.3752V44.3752C28.1249 44.875 28.4999 45.25 29.1248 45.3751H30.9998C31.4999 45.3751 31.8749 45.0001 32 44.3752V41.3752C35.75 40.75 38.2499 38.125 38.2499 34.75Z" fill="white"/>
<path fill-rule="evenodd" clip-rule="evenodd" d="M12.5001 23.8748C8.8749 33.5 13.875 44.375 23.625 47.8748C24 48.125 24.375 48.6248 24.375 48.9998V50.75C24.375 50.9999 24.375 51.125 24.2499 51.2498C24.1251 51.7499 23.625 51.9998 23.1249 51.7499C16.125 49.4999 10.7499 44.1248 8.4999 37.1249C4.7499 25.25 11.25 12.6248 23.1249 8.8748C23.25 8.75 23.4999 8.75 23.625 8.75C24.1251 8.8748 24.375 9.2498 24.375 9.7499V11.4998C24.375 12.125 24.1251 12.5 23.625 12.7499C18.5001 14.6249 14.3751 18.6248 12.5001 23.8748ZM35.7501 9.3749C35.8749 8.8748 36.375 8.6249 36.8751 8.8748C43.7499 11.1248 49.2501 16.4999 51.5001 23.6249C55.2501 35.4998 48.75 48.125 36.8751 51.875C36.75 51.9998 36.5001 51.9998 36.375 51.9998C35.8749 51.875 35.625 51.5 35.625 50.9999V49.25C35.625 48.6248 35.8749 48.2498 36.375 47.9999C41.4999 46.1249 45.6249 42.125 47.4999 36.875C51.1251 27.2498 46.125 16.3748 36.375 12.875C36 12.6248 35.625 12.125 35.625 11.6249V9.875C35.625 9.6248 35.625 9.5 35.7501 9.3749Z" fill="white"/>
</svg>
