<svg width="55" height="60" viewBox="0 0 55 60" fill="none" xmlns="http://www.w3.org/2000/svg">
<path d="M46.8348 44.9825V16.9478L43.7155 14.9453V42.98L24.9998 54.9951L6.28431 42.98V14.9453L3.16504 16.9478V44.9825L24.9998 59L46.8348 44.9825Z" fill="#B4B4B4" fill-opacity="0.1"/>
<path d="M6.28418 11.0123L15.6419 5.00488H34.3573L43.7152 11.0123V39.0472L24.9997 51.0619L6.28418 39.0472V11.0123Z" fill="#B4B4B4" fill-opacity="0.1"/>
<path fill-rule="evenodd" clip-rule="evenodd" d="M6.28422 7.00746L15.642 1H34.3577L43.7152 7.00746V11.0124L34.3577 5.00497H15.642L6.28422 11.0124V7.00746ZM46.8348 13.0149V41.0497L24.9998 55.0672L3.16504 41.0497V13.0149L6.28422 11.0124L6.28431 39.0473L24.9998 51.062L43.7155 39.0473L43.7152 11.0124L46.8348 13.0149ZM18.7614 15.0174L15.6421 13.015V25.0299L24.9999 31.0373L34.3577 25.0299V13.015L31.2384 15.0174V23.0274L24.9999 27.0324L18.7614 23.0274V15.0174ZM31.2385 31.0371V35.0421L21.8807 41.0494V37.0445L31.2385 31.0371Z" fill="#E5E5E5"/>
<mask id="mask0_3606_8628" style="mask-type:luminance" maskUnits="userSpaceOnUse" x="-5" y="0" width="60" height="60">
<path d="M55 0H-5V60H55V0Z" fill="white"/>
</mask>
<g mask="url(#mask0_3606_8628)">
</g>
</svg>
