<svg width="24" height="24" viewBox="0 0 24 24" fill="none" xmlns="http://www.w3.org/2000/svg">
<path d="M12 24C18.6274 24 24 18.6274 24 12C24 5.37258 18.6274 0 12 0C5.37258 0 0 5.37258 0 12C0 18.6274 5.37258 24 12 24Z" fill="#F6F6F6"/>
<path d="M12.374 3V9.6525L17.9968 12.165L12.374 3Z" fill="#343434"/>
<path d="M12.3735 3L6.75 12.165L12.3735 9.6525V3Z" fill="#8C8C8C"/>
<path d="M12.374 16.4766V20.9969L18.0005 13.2126L12.374 16.4766Z" fill="#3C3C3B"/>
<path d="M12.3735 20.9969V16.4759L6.75 13.2126L12.3735 20.9969Z" fill="#8C8C8C"/>
<path d="M12.374 15.4303L17.9968 12.1655L12.374 9.65454V15.4303Z" fill="#141414"/>
<path d="M6.75 12.1655L12.3735 15.4303V9.65454L6.75 12.1655Z" fill="#393939"/>
</svg>
