<svg width="24" height="24" viewBox="0 0 24 24" fill="none" xmlns="http://www.w3.org/2000/svg">
<g clip-path="url(#clip0_3880_6790)">
<path d="M23.9001 11.99C23.9001 18.6119 18.6118 23.9 11.9899 23.9C5.36801 23.9 0.100098 18.6218 0.100098 11.9999C0.100098 5.37801 5.36801 0.100098 11.9899 0.100098C18.6118 0.100098 23.9001 5.3681 23.9001 11.99Z" fill="black"/>
<path d="M22.3541 5.93432C21.5347 4.53568 20.4405 3.31754 19.1374 2.3534C17.8344 1.38927 16.3495 0.699134 14.7724 0.324641C13.1952 -0.0498522 11.5586 -0.100938 9.9612 0.174465C8.36379 0.449868 6.83874 1.04605 5.47808 1.92704C4.11741 2.80803 2.94934 3.95555 2.04435 5.30037C1.13936 6.64519 0.516208 8.15942 0.212504 9.75168C-0.091201 11.3439 -0.0691638 12.9812 0.277286 14.5648C0.623735 16.1483 1.28741 17.6452 2.22827 18.9652L15.3116 5.93432H22.3541Z" fill="#DEF141"/>
<path d="M23.6506 9.14338C23.5457 8.70945 23.4163 8.28182 23.2631 7.86255H16.1147L3.48389 20.4475C3.78033 20.7445 4.09186 21.026 4.41722 21.2909L16.6139 9.14338H23.6506Z" fill="#DEF141"/>
<path d="M9.30078 23.6759C10.8683 24.0334 12.4917 24.0727 14.0747 23.7915C15.6577 23.5103 17.1682 22.9142 18.5167 22.0386C19.8651 21.163 21.0242 20.0256 21.9251 18.6939C22.826 17.3623 23.4505 15.8633 23.7616 14.2859H18.7183L9.30078 23.6759Z" fill="#DEF141"/>
<path d="M23.9498 11.0652H17.4165L6.0415 22.406C6.42746 22.6269 6.82559 22.8259 7.234 23.0019L17.9157 12.361H23.9782C23.984 12.2335 23.984 12.1052 23.984 11.9769C23.984 11.6702 23.9726 11.3663 23.9498 11.0652Z" fill="#DEF141"/>
</g>
<defs>
<clipPath id="clip0_3880_6790">
<rect width="24" height="24" fill="white"/>
</clipPath>
</defs>
</svg>
