<svg width="23" height="24" viewBox="0 0 23 24" fill="none" xmlns="http://www.w3.org/2000/svg">
<g clip-path="url(#clip0_3880_6801)">
<path fill-rule="evenodd" clip-rule="evenodd" d="M2.82031 1.84622V16.6529C2.82049 16.9294 2.88294 17.2025 3.00308 17.4517C3.12321 17.701 3.29794 17.9201 3.51437 18.093L10.5127 23.6962C10.7589 23.8929 11.065 24 11.3803 24C11.6957 24 12.0017 23.8929 12.2479 23.6962L19.2462 18.093C19.4627 17.9201 19.6374 17.701 19.7575 17.4517C19.8777 17.2025 19.9402 16.9294 19.9403 16.6529V1.84622C19.9403 1.35658 19.7454 0.886976 19.3982 0.540746C19.0511 0.194512 18.5804 0 18.0895 0H4.67112C4.18026 0 3.7095 0.194512 3.3624 0.540746C3.01531 0.886976 2.82031 1.35658 2.82031 1.84622Z" fill="#004DE5"/>
<path d="M16.337 8.53225V5.29736C16.337 4.8684 16.1698 4.457 15.8722 4.15367C15.5746 3.85034 15.171 3.67993 14.7502 3.67993H8.00665C7.58582 3.67993 7.18223 3.85034 6.88467 4.15367C6.5871 4.457 6.41992 4.8684 6.41992 5.29736V14.6835C6.42007 14.9258 6.47362 15.165 6.57661 15.3833C6.67959 15.6017 6.82939 15.7937 7.01495 15.9451L9.4704 17.9547C9.49955 17.9789 9.5348 17.994 9.57208 17.9986C9.60935 18.0031 9.64711 17.9967 9.68097 17.9801C9.71483 17.9636 9.74339 17.9376 9.76335 17.9052C9.7833 17.8728 9.79382 17.8353 9.79369 17.7971V11.1606C9.79369 11.1069 9.81459 11.0555 9.85179 11.0176C9.88899 10.9797 9.93943 10.9583 9.99203 10.9583H11.7771C12.0927 10.9583 12.3954 11.0862 12.6186 11.3137C12.8418 11.5411 12.9671 11.8497 12.9671 12.1715V17.7971C12.9672 17.8351 12.9778 17.8724 12.9977 17.9047C13.0175 17.9369 13.046 17.9627 13.0797 17.9792C13.1134 17.9957 13.1509 18.0022 13.188 17.9978C13.2251 17.9935 13.2603 17.9786 13.2894 17.9547L15.7449 15.9451C15.9305 15.7937 16.0802 15.6017 16.1832 15.3833C16.2862 15.165 16.3398 14.9258 16.3399 14.6835V11.7671C16.3399 11.3381 16.1727 10.9267 15.8752 10.6234C15.5776 10.3201 15.174 10.1497 14.7532 10.1497C15.1735 10.1488 15.5763 9.97809 15.8733 9.67481C16.1702 9.37161 16.337 8.96065 16.337 8.53225ZM11.7751 9.34097H9.99005C9.93745 9.34097 9.887 9.31961 9.8498 9.28169C9.81261 9.24377 9.79171 9.19241 9.79171 9.13873V5.49954C9.79171 5.44592 9.81261 5.39449 9.8498 5.35658C9.887 5.31866 9.93745 5.29736 9.99005 5.29736H12.7668C12.8194 5.29736 12.8698 5.31866 12.907 5.35658C12.9442 5.39449 12.9651 5.44592 12.9651 5.49954V8.12785C12.9651 8.44961 12.8398 8.75817 12.6166 8.98561C12.3934 9.21313 12.0907 9.34097 11.7751 9.34097Z" fill="url(#paint0_linear_3880_6801)"/>
</g>
<defs>
<linearGradient id="paint0_linear_3880_6801" x1="11.3799" y1="3.67993" x2="11.3799" y2="17.9999" gradientUnits="userSpaceOnUse">
<stop stop-color="white"/>
<stop offset="0.458333" stop-color="white"/>
<stop offset="1" stop-color="white"/>
</linearGradient>
<clipPath id="clip0_3880_6801">
<rect width="17.12" height="24" fill="white" transform="translate(2.82031)"/>
</clipPath>
</defs>
</svg>
