<svg width="62" height="62" viewBox="0 0 62 62" fill="none" xmlns="http://www.w3.org/2000/svg">
<g clip-path="url(#clip0_3606_8608)">
<path d="M30 0C46.5701 0 60 13.4326 60 30C60 46.5701 46.5701 60 30 60C13.4326 60 0 46.5687 0 30C0 13.4326 13.4326 0 30 0Z" fill="white" fill-opacity="0.1"/>
<path d="M31.1055 32.1182H42.505C42.748 32.1182 42.8628 32.1182 42.8803 31.7996C42.9735 30.6399 42.9735 29.4735 42.8803 28.3125C42.8803 28.087 42.7683 27.9939 42.5239 27.9939H19.8369C19.5561 27.9939 19.4805 28.087 19.4805 28.3503V31.6875C19.4805 32.1182 19.4805 32.1182 19.9301 32.1182H31.1055ZM41.6072 24.0937C41.6396 24.0086 41.6396 23.9155 41.6072 23.8318C41.4169 23.4173 41.1914 23.0218 40.9295 22.6505C40.5353 22.016 40.0709 21.4315 39.5417 20.9063C39.292 20.5891 39.0031 20.3042 38.6791 20.0626C37.0564 18.6815 35.1272 17.7041 33.0536 17.2127C32.0073 16.9778 30.9381 16.8657 29.8662 16.8752H19.7978C19.517 16.8752 19.4792 16.9872 19.4792 17.2316V23.8871C19.4792 24.1679 19.4792 24.2435 19.8356 24.2435H41.4722C41.4722 24.2435 41.6599 24.2057 41.6977 24.0937H41.6059H41.6072ZM41.6072 36.0184C41.2886 35.9833 40.9673 35.9833 40.6487 36.0184H19.8558C19.575 36.0184 19.4805 36.0184 19.4805 36.3937V42.9007C19.4805 43.2004 19.4805 43.276 19.8558 43.276H29.4558C29.9148 43.3111 30.3738 43.2787 30.8233 43.1829C32.2166 43.083 33.5868 42.7806 34.8936 42.2824C35.3688 42.1177 35.8278 41.9031 36.2612 41.6452H36.3921C38.6426 40.4748 40.4705 38.636 41.6234 36.3788C41.6234 36.3788 41.7544 36.0953 41.6072 36.0211V36.0184ZM15.7126 46.6497V46.5377V42.169V40.6881V36.2816C15.7126 36.0373 15.7126 36.0008 15.4129 36.0008H11.344C11.1185 36.0008 11.0254 36.0008 11.0254 35.7011V32.1384H15.3751C15.6181 32.1384 15.7126 32.1384 15.7126 31.8198V28.2949C15.7126 28.0695 15.7126 28.0141 15.4129 28.0141H11.344C11.1185 28.0141 11.0254 28.0141 11.0254 27.7144V24.415C11.0254 24.2084 11.0254 24.1531 11.3251 24.1531H15.3562C15.637 24.1531 15.7126 24.1531 15.7126 23.7967V13.6905C15.7126 13.3908 15.7126 13.3152 16.0879 13.3152H30.1497C31.1703 13.3557 32.1842 13.4677 33.1872 13.6527C35.2541 14.0347 37.24 14.7732 39.0557 15.8276C40.2599 16.5363 41.3683 17.3922 42.3552 18.3777C43.0977 19.1486 43.7673 19.9829 44.3613 20.8712C44.9512 21.7717 45.4413 22.7342 45.826 23.74C45.8733 24.0019 46.1244 24.1787 46.3863 24.1342H49.7424C50.1731 24.1342 50.1731 24.1342 50.192 24.5473V27.6226C50.192 27.9223 50.0799 27.9979 49.7789 27.9979H47.1909C46.929 27.9979 46.8534 27.9979 46.8723 28.3354C46.9749 29.4775 46.9749 30.6237 46.8723 31.7658C46.8723 32.0844 46.8723 32.1222 47.23 32.1222H50.1906C50.3216 32.291 50.1906 32.4597 50.1906 32.6298C50.2095 32.8472 50.2095 33.0672 50.1906 33.2846V35.554C50.1906 35.8726 50.0975 35.9671 49.8153 35.9671H46.2715C46.0245 35.9198 45.7842 36.0778 45.7275 36.3235C44.8837 38.5172 43.5337 40.4842 41.7895 42.061C41.1523 42.6348 40.4827 43.1748 39.7834 43.6729C39.0328 44.1049 38.3024 44.5545 37.5329 44.9109C36.1167 45.5481 34.6317 46.0179 33.1076 46.3163C31.6603 46.5755 30.1929 46.6929 28.72 46.6727H15.7072V46.6538L15.7126 46.6497Z" fill="#FEFEFD"/>
</g>
<defs>
<clipPath id="clip0_3606_8608">
<rect width="60" height="60" fill="white"/>
</clipPath>
</defs>
</svg>
