<svg width="614" height="389" viewBox="0 0 614 389" fill="none" xmlns="http://www.w3.org/2000/svg">
<line opacity="0.5" y1="-0.5" x2="360" y2="-0.5" transform="matrix(0.866044 0.499967 -0.866044 0.499967 19.1443 197.558)" stroke="url(#paint0_linear_3433_6175)"/>
<line y1="-0.5" x2="360" y2="-0.5" transform="matrix(0.866044 0.499967 -0.866044 0.499967 75.4373 165.06)" stroke="url(#paint1_linear_3433_6175)"/>
<line y1="-0.5" x2="360" y2="-0.5" transform="matrix(0.866044 0.499967 -0.866044 0.499967 131.73 132.562)" stroke="url(#paint2_linear_3433_6175)"/>
<line y1="-0.5" x2="360" y2="-0.5" transform="matrix(0.866044 0.499967 -0.866044 0.499967 188.023 100.064)" stroke="url(#paint3_linear_3433_6175)"/>
<line y1="-0.5" x2="360" y2="-0.5" transform="matrix(0.866044 0.499967 -0.866044 0.499967 244.316 67.5662)" stroke="url(#paint4_linear_3433_6175)"/>
<g opacity="0.5">
<line y1="-0.5" x2="360" y2="-0.5" transform="matrix(0.866044 0.499967 -0.866044 0.499967 300.609 35.0682)" stroke="url(#paint5_linear_3433_6175)"/>
</g>
<line y1="-0.5" x2="322" y2="-0.5" transform="matrix(-0.866044 0.499967 -0.866044 -0.499967 318.363 42.3176)" stroke="url(#paint6_linear_3433_6175)"/>
<line y1="-0.5" x2="390" y2="-0.5" transform="matrix(-0.866044 0.499967 -0.866044 -0.499967 404.101 57.8167)" stroke="url(#paint7_linear_3433_6175)"/>
<line y1="-0.5" x2="390" y2="-0.5" transform="matrix(-0.866044 0.499967 -0.866044 -0.499967 460.394 90.3146)" stroke="url(#paint8_linear_3433_6175)"/>
<line y1="-0.5" x2="390" y2="-0.5" transform="matrix(-0.866044 0.499967 -0.866044 -0.499967 516.687 122.812)" stroke="url(#paint9_linear_3433_6175)"/>
<line y1="-0.5" x2="390" y2="-0.5" transform="matrix(-0.866044 0.499967 -0.866044 -0.499967 572.979 155.31)" stroke="url(#paint10_linear_3433_6175)"/>
<line y1="-0.5" x2="322" y2="-0.5" transform="matrix(-0.866044 0.499967 -0.866044 -0.499967 599.827 204.807)" stroke="url(#paint11_linear_3433_6175)"/>
<path opacity="0.9" d="M316.5 186L259.5 217.5V272L316 304L373 271.5V215L316.5 186Z" fill="#D9D9D9"/>
<path opacity="0.7" d="M316 304L373 271.5V215L316.5 248.5L316 304Z" fill="url(#paint12_radial_3433_6175)"/>
<path opacity="0.9" d="M316.5 248.5L259.5 217.5L316.5 186L373 215L316.5 248.5Z" fill="url(#paint13_radial_3433_6175)"/>
<path opacity="0.7" d="M259.5 272L316 304L316.5 248.5L259.5 217.5V272Z" fill="url(#paint14_radial_3433_6175)"/>
<path d="M195 164C195 154.611 202.611 147 212 147L292 147C301.389 147 309 154.611 309 164C309 173.389 301.389 181 292 181L212 181C202.611 181 195 173.389 195 164Z" fill="#5FEB3C"/>
<path d="M213.758 158.8L215.502 158.8L215.502 170L213.726 170L213.726 162.32C213.566 162.416 213.326 162.464 213.022 162.464L211.198 162.464L211.198 160.944L212.942 160.944C213.518 160.944 213.758 160.528 213.758 159.936L213.758 158.8ZM217.291 161.44C217.291 159.856 218.507 158.704 220.155 158.704C221.803 158.704 223.019 159.856 223.019 161.44C223.019 163.024 221.803 164.16 220.155 164.16C218.507 164.16 217.291 163.024 217.291 161.44ZM219.147 170L226.795 158.8L228.507 158.8L220.843 170L219.147 170ZM221.563 161.44C221.563 160.624 220.971 160.016 220.155 160.016C219.355 160.016 218.763 160.624 218.763 161.44C218.763 162.256 219.355 162.864 220.155 162.864C220.971 162.864 221.563 162.256 221.563 161.44ZM224.603 167.376C224.603 165.776 225.819 164.64 227.467 164.64C229.115 164.64 230.331 165.776 230.331 167.376C230.331 168.944 229.115 170.096 227.467 170.096C225.819 170.096 224.603 168.944 224.603 167.376ZM228.875 167.376C228.875 166.56 228.267 165.936 227.467 165.936C226.667 165.936 226.059 166.56 226.059 167.376C226.059 168.192 226.667 168.784 227.467 168.784C228.267 168.784 228.875 168.192 228.875 167.376ZM235.196 161.808L236.62 161.808L236.62 161.04C236.62 159.568 237.324 158.8 238.908 158.8L240.556 158.8L240.556 160.32L239.132 160.32C238.572 160.32 238.332 160.56 238.332 161.12L238.332 161.808L240.556 161.808L240.556 163.328L238.364 163.328L238.364 170L236.62 170L236.62 163.328L235.196 163.328L235.196 161.808ZM244.994 170.096C242.418 170.096 240.802 168.432 240.802 165.92C240.802 163.392 242.418 161.712 244.834 161.712C247.202 161.712 248.786 163.216 248.834 165.616C248.834 165.824 248.818 166.048 248.786 166.272L242.61 166.272L242.61 166.384C242.658 167.776 243.538 168.688 244.898 168.688C245.954 168.688 246.722 168.16 246.962 167.248L248.69 167.248C248.402 168.864 247.026 170.096 244.994 170.096ZM247.042 165.008C246.898 163.792 246.05 163.104 244.85 163.104C243.746 163.104 242.802 163.84 242.674 165.008L247.042 165.008ZM254.119 170.096C251.543 170.096 249.927 168.432 249.927 165.92C249.927 163.392 251.543 161.712 253.959 161.712C256.327 161.712 257.911 163.216 257.959 165.616C257.959 165.824 257.943 166.048 257.911 166.272L251.735 166.272L251.735 166.384C251.783 167.776 252.663 168.688 254.023 168.688C255.079 168.688 255.847 168.16 256.087 167.248L257.815 167.248C257.527 168.864 256.151 170.096 254.119 170.096ZM256.167 165.008C256.023 163.792 255.175 163.104 253.975 163.104C252.871 163.104 251.927 163.84 251.799 165.008L256.167 165.008ZM267.322 168.624C268.778 168.624 269.738 167.488 269.738 165.904C269.738 164.32 268.778 163.184 267.322 163.184C265.866 163.184 264.922 164.32 264.922 165.904C264.922 167.488 265.866 168.624 267.322 168.624ZM267.322 170.096C264.826 170.096 263.146 168.416 263.146 165.904C263.146 163.408 264.826 161.712 267.322 161.712C269.818 161.712 271.498 163.408 271.498 165.904C271.498 168.416 269.818 170.096 267.322 170.096ZM272.887 161.808L274.391 161.808L274.583 162.88C275.095 162.24 275.879 161.712 277.207 161.712C279.015 161.712 280.503 162.704 280.503 165.44L280.503 170L278.759 170L278.759 165.584C278.759 164.032 278.103 163.2 276.807 163.2C275.431 163.2 274.615 164.208 274.615 165.872L274.615 170L272.887 170L272.887 161.808ZM282.075 158.8L283.803 158.8L283.803 170L282.075 170L282.075 158.8ZM284.68 161.808L286.52 161.808L288.808 168.032L291.032 161.808L292.872 161.808L289.16 171.28C288.648 172.608 288.296 173.2 287.096 173.2L285.24 173.2L285.24 171.68L286.456 171.68C287.128 171.68 287.288 171.52 287.544 170.848L287.864 170.048L284.68 161.808Z" fill="#000A05"/>
<path opacity="0.9" d="M430 2.5L372.5 32L373 206L429 239L486 206.5L485.5 30L430 2.5Z" fill="#D9D9D9"/>
<path opacity="0.7" d="M429 239L486 206.5L485.5 30L429.5 63L429 239Z" fill="#B8FB9B"/>
<path opacity="0.7" d="M429.5 63L372.5 32L430 2.5L485.5 30L429.5 63Z" fill="url(#paint15_linear_3433_6175)"/>
<path opacity="0.7" d="M372.5 206L429 239L429.5 63L372.5 32V206Z" fill="url(#paint16_linear_3433_6175)"/>
<path d="M289.739 47.6067C289.739 38.2178 297.35 30.6067 306.739 30.6067H379.739C389.128 30.6067 396.739 38.2178 396.739 47.6067C396.739 56.9955 389.128 64.6067 379.739 64.6067H306.739C297.35 64.6067 289.739 56.9955 289.739 47.6067Z" fill="#5FEB3C"/>
<path d="M308.008 50.0707C308.04 51.4467 309.08 52.2307 310.504 52.2307C311.768 52.2307 312.744 51.5107 312.744 50.3587C312.744 49.3187 311.928 48.6467 310.376 48.6467H309.352V47.1747H310.28C311.752 47.1747 312.488 46.4387 312.488 45.4147C312.488 44.3907 311.576 43.7827 310.408 43.7827C309.144 43.7827 308.232 44.5507 308.2 45.7187H306.472C306.488 43.7027 308.104 42.3107 310.408 42.3107C312.824 42.3107 314.296 43.5107 314.296 45.3027C314.296 46.6787 313.496 47.4947 312.424 47.7827C313.528 48.0067 314.552 48.7907 314.552 50.4707C314.552 52.3907 312.936 53.7027 310.408 53.7027C307.88 53.7027 306.264 52.3747 306.264 50.0707H308.008ZM315.77 47.7507C315.77 44.5027 317.578 42.3107 320.186 42.3107C322.794 42.3107 324.602 44.5027 324.602 47.7507V48.2627C324.602 51.6387 322.794 53.7027 320.186 53.7027C317.578 53.7027 315.77 51.6387 315.77 48.2627V47.7507ZM322.81 47.8147C322.81 45.3187 321.754 43.8627 320.186 43.8627C318.618 43.8627 317.562 45.3187 317.562 47.8147V48.1987C317.562 50.7107 318.618 52.1507 320.186 52.1507C321.754 52.1507 322.81 50.7107 322.81 48.1987V47.8147ZM325.976 45.0467C325.976 43.4627 327.192 42.3107 328.84 42.3107C330.488 42.3107 331.704 43.4627 331.704 45.0467C331.704 46.6307 330.488 47.7667 328.84 47.7667C327.192 47.7667 325.976 46.6307 325.976 45.0467ZM327.832 53.6067L335.48 42.4067H337.192L329.528 53.6067H327.832ZM330.248 45.0467C330.248 44.2307 329.656 43.6227 328.84 43.6227C328.04 43.6227 327.448 44.2307 327.448 45.0467C327.448 45.8627 328.04 46.4707 328.84 46.4707C329.656 46.4707 330.248 45.8627 330.248 45.0467ZM333.288 50.9827C333.288 49.3827 334.504 48.2467 336.152 48.2467C337.8 48.2467 339.016 49.3827 339.016 50.9827C339.016 52.5507 337.8 53.7027 336.152 53.7027C334.504 53.7027 333.288 52.5507 333.288 50.9827ZM337.56 50.9827C337.56 50.1667 336.952 49.5427 336.152 49.5427C335.352 49.5427 334.744 50.1667 334.744 50.9827C334.744 51.7987 335.352 52.3907 336.152 52.3907C336.952 52.3907 337.56 51.7987 337.56 50.9827ZM340.523 49.7667V48.3427H345.963V49.7667H340.523ZM347.844 42.4067H354.836V43.9587H349.46L349.268 46.9987C349.892 46.3267 350.74 46.0547 351.764 46.0547C353.988 46.0547 355.508 47.5907 355.508 49.8467C355.508 52.3587 353.636 53.6867 351.444 53.6867C348.9 53.6867 347.396 52.0707 347.284 50.0707H349.044C349.172 51.2387 350.02 52.1987 351.46 52.1987C352.612 52.1987 353.716 51.3987 353.716 49.8467C353.716 48.4867 352.836 47.5107 351.46 47.5107C350.788 47.5107 349.652 47.7347 349.204 48.8867L347.492 48.8547L347.844 42.4067ZM356.582 47.7507C356.582 44.5027 358.39 42.3107 360.998 42.3107C363.606 42.3107 365.414 44.5027 365.414 47.7507V48.2627C365.414 51.6387 363.606 53.7027 360.998 53.7027C358.39 53.7027 356.582 51.6387 356.582 48.2627V47.7507ZM363.622 47.8147C363.622 45.3187 362.566 43.8627 360.998 43.8627C359.43 43.8627 358.374 45.3187 358.374 47.8147V48.1987C358.374 50.7107 359.43 52.1507 360.998 52.1507C362.566 52.1507 363.622 50.7107 363.622 48.1987V47.8147ZM366.788 45.0467C366.788 43.4627 368.004 42.3107 369.652 42.3107C371.3 42.3107 372.516 43.4627 372.516 45.0467C372.516 46.6307 371.3 47.7667 369.652 47.7667C368.004 47.7667 366.788 46.6307 366.788 45.0467ZM368.644 53.6067L376.292 42.4067H378.004L370.34 53.6067H368.644ZM371.06 45.0467C371.06 44.2307 370.468 43.6227 369.652 43.6227C368.852 43.6227 368.26 44.2307 368.26 45.0467C368.26 45.8627 368.852 46.4707 369.652 46.4707C370.468 46.4707 371.06 45.8627 371.06 45.0467ZM374.1 50.9827C374.1 49.3827 375.316 48.2467 376.964 48.2467C378.612 48.2467 379.828 49.3827 379.828 50.9827C379.828 52.5507 378.612 53.7027 376.964 53.7027C375.316 53.7027 374.1 52.5507 374.1 50.9827ZM378.372 50.9827C378.372 50.1667 377.764 49.5427 376.964 49.5427C376.164 49.5427 375.556 50.1667 375.556 50.9827C375.556 51.7987 376.164 52.3907 376.964 52.3907C377.764 52.3907 378.372 51.7987 378.372 50.9827Z" fill="#000A05"/>
<path d="M362.299 86.3011L359.5 88.8641V78.1654L367.749 86.0083H362.832H362.653L362.514 86.1225L362.318 86.284L362.308 86.2923L362.299 86.3011Z" stroke="#5FEB3C"/>
<path d="M272.267 196.869C272.084 196.834 271.894 196.803 271.698 196.775C271.022 196.679 270.266 196.628 269.544 196.703C268.826 196.778 268.1 196.982 267.524 197.433C267.479 197.468 267.425 197.513 267.385 197.546L267.333 197.589L267.318 197.602L267.314 197.606L267.313 197.607L267.312 197.607L267.312 197.607L267.312 197.607L267.312 197.607L267.636 197.988L267.312 197.607L267.305 197.613L267.299 197.619L264.5 200.182V189.483L272.267 196.869Z" stroke="#5FEB3C"/>
<defs>
<linearGradient id="paint0_linear_3433_6175" x1="0" y1="0.5" x2="360" y2="0.5" gradientUnits="userSpaceOnUse">
<stop stop-color="white" stop-opacity="0"/>
<stop offset="0.506233" stop-color="#5FEB3C" stop-opacity="0.6"/>
<stop offset="1" stop-color="white" stop-opacity="0"/>
</linearGradient>
<linearGradient id="paint1_linear_3433_6175" x1="0" y1="0.5" x2="360" y2="0.5" gradientUnits="userSpaceOnUse">
<stop stop-color="white" stop-opacity="0"/>
<stop offset="0.506233" stop-color="#5FEB3C" stop-opacity="0.6"/>
<stop offset="1" stop-color="white" stop-opacity="0"/>
</linearGradient>
<linearGradient id="paint2_linear_3433_6175" x1="0" y1="0.5" x2="360" y2="0.5" gradientUnits="userSpaceOnUse">
<stop stop-color="white" stop-opacity="0"/>
<stop offset="0.506233" stop-color="#5FEB3C" stop-opacity="0.6"/>
<stop offset="1" stop-color="white" stop-opacity="0"/>
</linearGradient>
<linearGradient id="paint3_linear_3433_6175" x1="0" y1="0.5" x2="360" y2="0.5" gradientUnits="userSpaceOnUse">
<stop stop-color="white" stop-opacity="0"/>
<stop offset="0.506233" stop-color="#5FEB3C" stop-opacity="0.6"/>
<stop offset="1" stop-color="white" stop-opacity="0"/>
</linearGradient>
<linearGradient id="paint4_linear_3433_6175" x1="0" y1="0.5" x2="360" y2="0.5" gradientUnits="userSpaceOnUse">
<stop stop-color="white" stop-opacity="0"/>
<stop offset="0.506233" stop-color="#5FEB3C" stop-opacity="0.6"/>
<stop offset="1" stop-color="white" stop-opacity="0"/>
</linearGradient>
<linearGradient id="paint5_linear_3433_6175" x1="0" y1="0.5" x2="360" y2="0.5" gradientUnits="userSpaceOnUse">
<stop stop-color="white" stop-opacity="0"/>
<stop offset="0.506233" stop-color="#5FEB3C" stop-opacity="0.6"/>
<stop offset="1" stop-color="white" stop-opacity="0"/>
</linearGradient>
<linearGradient id="paint6_linear_3433_6175" x1="0" y1="0.5" x2="322" y2="0.5" gradientUnits="userSpaceOnUse">
<stop stop-color="white" stop-opacity="0"/>
<stop offset="0.506233" stop-color="#5FEB3C" stop-opacity="0.2"/>
<stop offset="1" stop-color="white" stop-opacity="0"/>
</linearGradient>
<linearGradient id="paint7_linear_3433_6175" x1="0" y1="0.5" x2="390" y2="0.5" gradientUnits="userSpaceOnUse">
<stop stop-color="white" stop-opacity="0"/>
<stop offset="0.506233" stop-color="#5FEB3C" stop-opacity="0.6"/>
<stop offset="1" stop-color="white" stop-opacity="0"/>
</linearGradient>
<linearGradient id="paint8_linear_3433_6175" x1="0" y1="0.5" x2="390" y2="0.5" gradientUnits="userSpaceOnUse">
<stop stop-color="white" stop-opacity="0"/>
<stop offset="0.506233" stop-color="#5FEB3C" stop-opacity="0.6"/>
<stop offset="1" stop-color="white" stop-opacity="0"/>
</linearGradient>
<linearGradient id="paint9_linear_3433_6175" x1="0" y1="0.5" x2="390" y2="0.5" gradientUnits="userSpaceOnUse">
<stop stop-color="white" stop-opacity="0"/>
<stop offset="0.506233" stop-color="#5FEB3C" stop-opacity="0.6"/>
<stop offset="1" stop-color="white" stop-opacity="0"/>
</linearGradient>
<linearGradient id="paint10_linear_3433_6175" x1="0" y1="0.5" x2="390" y2="0.5" gradientUnits="userSpaceOnUse">
<stop stop-color="white" stop-opacity="0"/>
<stop offset="0.506233" stop-color="#5FEB3C" stop-opacity="0.6"/>
<stop offset="1" stop-color="white" stop-opacity="0"/>
</linearGradient>
<linearGradient id="paint11_linear_3433_6175" x1="0" y1="0.5" x2="322" y2="0.5" gradientUnits="userSpaceOnUse">
<stop stop-color="white" stop-opacity="0"/>
<stop offset="0.506233" stop-color="#5FEB3C" stop-opacity="0.2"/>
<stop offset="1" stop-color="white" stop-opacity="0"/>
</linearGradient>
<radialGradient id="paint12_radial_3433_6175" cx="0" cy="0" r="1" gradientUnits="userSpaceOnUse" gradientTransform="translate(325.888 94.4999) rotate(80.7272) scale(223.221 71.5942)">
<stop stop-color="#E7F5E7" stop-opacity="0.9"/>
<stop offset="1" stop-color="#76C282"/>
</radialGradient>
<radialGradient id="paint13_radial_3433_6175" cx="0" cy="0" r="1" gradientUnits="userSpaceOnUse" gradientTransform="translate(345 248.5) rotate(-107.984) scale(100.405 100.607)">
<stop stop-color="#E7F5E7"/>
<stop offset="1" stop-color="#76C282"/>
</radialGradient>
<radialGradient id="paint14_radial_3433_6175" cx="0" cy="0" r="1" gradientUnits="userSpaceOnUse" gradientTransform="translate(266.47 95) rotate(80.1406) scale(223.072 75.8982)">
<stop stop-color="#E7F5E7"/>
<stop offset="1" stop-color="#4CAC5B"/>
</radialGradient>
<linearGradient id="paint15_linear_3433_6175" x1="373.491" y1="29.3889" x2="486.491" y2="32.8961" gradientUnits="userSpaceOnUse">
<stop offset="0.0444805" stop-color="#C1F5AA"/>
<stop offset="0.504215" stop-color="#E5FFDA"/>
<stop offset="1" stop-color="#8FE768"/>
</linearGradient>
<linearGradient id="paint16_linear_3433_6175" x1="373" y1="124" x2="430" y2="136" gradientUnits="userSpaceOnUse">
<stop stop-color="#E5FFDA"/>
<stop offset="1" stop-color="#8FE768"/>
</linearGradient>
</defs>
</svg>
