<svg width="60" height="60" viewBox="0 0 60 60" fill="none" xmlns="http://www.w3.org/2000/svg">
<path d="M0 30C0 13.4315 13.4315 0 30 0C46.5685 0 60 13.4315 60 30C60 46.5685 46.5685 60 30 60C13.4315 60 0 46.5685 0 30Z" fill="white" fill-opacity="0.1"/>
<path d="M30.001 47.9981L22.1352 33.8702L16.1696 44.4904L8 26.6572L16.8081 16.3805L22.1507 25.9781L30.001 12L37.8513 25.9781L43.1938 16.3805L52 26.6572L43.8285 44.4923L37.8629 33.8721L29.9971 48L30.001 47.9981ZM24.3508 29.9279L30.0029 40.0794L35.655 29.9279L30.0029 19.8655L24.3508 29.9279ZM12.526 27.2738L16.5237 35.9987L19.937 29.9203L16.1251 23.0736L12.526 27.2738ZM40.0669 29.9203L43.4802 35.9987L47.4778 27.2738L43.8787 23.0736L40.0669 29.9203Z" fill="white"/>
</svg>
