<svg width="60" height="60" viewBox="0 0 60 60" fill="none" xmlns="http://www.w3.org/2000/svg">
<g clip-path="url(#clip0_3606_8635)">
<path fill-rule="evenodd" clip-rule="evenodd" d="M12 7.154V40.469C12.0004 41.0912 12.139 41.7056 12.4057 42.2663C12.6723 42.8272 13.0602 43.3202 13.5405 43.7092L29.0743 56.3165C29.6208 56.759 30.3 57 31 57C31.7 57 32.3792 56.759 32.9257 56.3165L48.4594 43.7092C48.9399 43.3202 49.3277 42.8272 49.5942 42.2663C49.861 41.7056 49.9996 41.0912 50 40.469V7.154C50 6.0523 49.5673 4.9957 48.7968 4.21668C48.0263 3.43765 46.9815 3 45.8919 3H16.1081C15.0186 3 13.9737 3.43765 13.2032 4.21668C12.4328 4.9957 12 6.0523 12 7.154Z" fill="white" fill-opacity="0.1"/>
<path d="M42.0028 22.1977V14.9193C42.0028 13.9541 41.6317 13.0284 40.9713 12.3459C40.3108 11.6634 39.4149 11.28 38.4809 11.28H23.5127C22.5786 11.28 21.6828 11.6634 21.0223 12.3459C20.3618 13.0284 19.9907 13.9541 19.9907 14.9193V36.0381C19.9911 36.5832 20.1099 37.1214 20.3385 37.6126C20.5671 38.104 20.8996 38.536 21.3115 38.8767L26.7616 43.3983C26.8263 43.4527 26.9046 43.4867 26.9873 43.497C27.0701 43.507 27.1539 43.4926 27.229 43.4554C27.3042 43.4183 27.3676 43.3598 27.4119 43.2869C27.4562 43.214 27.4795 43.1296 27.4792 43.0436V28.1115C27.4792 27.9907 27.5256 27.8751 27.6082 27.7898C27.6907 27.7045 27.8027 27.6564 27.9195 27.6564H31.8817C32.5822 27.6564 33.2541 27.9441 33.7494 28.456C34.2448 28.9677 34.5231 29.662 34.5231 30.386V43.0436C34.5232 43.1292 34.5467 43.2131 34.5909 43.2857C34.6349 43.3582 34.6981 43.4163 34.7729 43.4534C34.8477 43.4905 34.9309 43.5051 35.0133 43.4952C35.0957 43.4855 35.1739 43.452 35.2385 43.3983L40.6886 38.8767C41.1006 38.536 41.433 38.104 41.6616 37.6126C41.8903 37.1214 42.0091 36.5832 42.0094 36.0381V29.4761C42.0094 28.5109 41.6383 27.5853 40.9779 26.9028C40.3173 26.2204 39.4215 25.837 38.4875 25.837C39.4204 25.835 40.3145 25.4509 40.9736 24.7685C41.6326 24.0863 42.0028 23.1616 42.0028 22.1977ZM31.8773 24.0174H27.9151C27.7983 24.0174 27.6863 23.9693 27.6038 23.884C27.5212 23.7987 27.4748 23.6831 27.4748 23.5623V15.3741C27.4748 15.2535 27.5212 15.1378 27.6038 15.0525C27.6863 14.9672 27.7983 14.9193 27.9151 14.9193H34.0784C34.1953 14.9193 34.3071 14.9672 34.3897 15.0525C34.4723 15.1378 34.5186 15.2535 34.5186 15.3741V21.2878C34.5186 22.0118 34.2404 22.7061 33.7451 23.2178C33.2497 23.7297 32.5778 24.0174 31.8773 24.0174Z" fill="url(#paint0_linear_3606_8635)"/>
</g>
<defs>
<linearGradient id="paint0_linear_3606_8635" x1="31.0001" y1="11.28" x2="31.0001" y2="43.5" gradientUnits="userSpaceOnUse">
<stop stop-color="white"/>
<stop offset="0.458333" stop-color="white"/>
<stop offset="1" stop-color="white"/>
</linearGradient>
<clipPath id="clip0_3606_8635">
<rect width="38" height="54" fill="white" transform="translate(12 3)"/>
</clipPath>
</defs>
</svg>
