<svg width="375" height="750" fill="none" xmlns="http://www.w3.org/2000/svg"><g opacity=".1" stroke="#55EB3C" stroke-width="2" stroke-miterlimit="10"><path d="M128.48 76.13h118.383c41.478 0 79.698 22.699 100.415 59.471l59.271 105.242a118.462 118.462 0 0 1 12.018 30.34c4.743 19.206 4.713 39.353-.117 58.515a118.694 118.694 0 0 1-11.668 29.505c-.029.149-.145.298-.218.447l-16.338 29.042-16.382-29.042-26.537-47.144c-20.717-36.772-58.937-59.471-100.415-59.471H128.509c-41.479 0-79.698 22.699-100.416 59.471L1.557 359.65l-16.339 29.042-16.352-29.042c-.073-.149-.19-.298-.219-.447-5.266-9.387-9.15-19.312-11.712-29.505a121.201 121.201 0 0 1-.116-58.516c2.59-10.491 6.59-20.714 12.046-30.339L28.094 135.6C48.811 98.828 87.03 76.13 128.51 76.13h-.029Z"/><path d="M128.479 18h118.383c41.479 0 79.698 22.7 100.416 59.471l59.271 105.242c15.305 27.147 19.306 58.889 12.017 88.468-2.488 10.193-6.343 20.073-11.522 29.46-.146.298-.335.567-.48.88l-16.12 28.624-16.601 29.504-26.536-47.144c-20.718-36.772-58.937-59.471-100.416-59.471H128.508c-41.478 0-79.698 22.699-100.415 59.471L1.556 359.649l-16.57-29.504-16.12-28.624c-.146-.299-.335-.567-.481-.88a120.598 120.598 0 0 1-11.566-29.46c-7.304-29.579-3.26-61.321 12.046-88.468L28.093 77.471C48.81 40.7 87.03 18.001 128.508 18.001h-.029Z"/><path d="M128.48 135.108h118.383c41.478 0 79.698 22.699 100.415 59.471l59.272 105.242c.145.269.291.567.48.836a119.445 119.445 0 0 1 11.421 29.041 121.259 121.259 0 0 1 0 59.009 117.702 117.702 0 0 1-11.668 29.459c-.073-.149-.146-.269-.219-.418l-16.338-29.041-16.382-29.042-26.537-47.144c-20.717-36.772-58.936-59.471-100.415-59.471H128.509c-41.478 0-79.698 22.699-100.415 59.471L1.557 359.665l-16.338 29.042-16.353 29.041c-.073.149-.145.269-.218.418-5.267-9.357-9.151-19.281-11.712-29.459a121.252 121.252 0 0 1 0-59.009 121.311 121.311 0 0 1 11.45-29.041c.189-.269.335-.567.48-.836l59.228-105.242c20.717-36.772 58.937-59.471 100.415-59.471h-.029Z"/><path d="M128.48 194.071h118.383c41.479 0 79.698 22.699 100.416 59.471l43.151 76.619 16.12 28.623c.073.149.146.269.218.418a117.666 117.666 0 0 1 11.669 29.504 120.956 120.956 0 0 1 0 58.934 119.033 119.033 0 0 0-11.669-29.459c-.072-.15-.145-.269-.218-.418l-16.338-29.042-16.382-29.041-26.537-47.144c-20.717-36.772-58.937-59.471-100.415-59.471H128.495c-41.478 0-79.698 22.699-100.415 59.471L1.543 359.68l-16.338 29.041-16.353 29.042c-.073.149-.146.268-.218.418-5.267 9.387-9.152 19.311-11.712 29.459a120.948 120.948 0 0 1 0-58.934c2.56-10.193 6.445-20.147 11.712-29.504.072-.149.145-.269.218-.418l16.12-28.623 43.108-76.619c20.717-36.772 58.937-59.471 100.415-59.471h-.015ZM406.768 536.107a117.608 117.608 0 0 0 11.669-29.46 120.956 120.956 0 0 1 0 58.934 118.652 118.652 0 0 1-11.669 29.504c-.029.149-.145.299-.218.463l-16.338 29.041-16.6 29.505-26.319 46.77c-20.717 36.772-58.937 59.471-100.415 59.471H128.495c-41.478 0-79.698-22.699-100.415-59.471L1.76 654.093l-16.571-29.504-16.353-29.041c-.072-.15-.189-.299-.218-.463-5.267-9.387-9.151-19.311-11.712-29.504a120.948 120.948 0 0 1 0-58.934c2.56 10.193 6.445 20.117 11.712 29.46.044.149.146.298.218.462l16.353 29.042 16.571 29.504 16.6 29.504 9.719 17.267c20.717 36.772 58.937 59.471 100.415 59.471h118.383c41.478 0 79.698-22.699 100.415-59.471l9.704-17.267 16.6-29.504 16.601-29.504 16.338-29.042c.072-.149.189-.298.218-.462h.014Z"/><path d="M406.55 536.57c.073-.149.189-.299.218-.463a118.483 118.483 0 0 1 11.669 29.46 121.255 121.255 0 0 1 0 59.008 117.667 117.667 0 0 1-11.669 29.459c-.029.15-.145.299-.218.463l-16.338 29.042-42.919 76.275c-20.717 36.772-58.937 59.471-100.415 59.471H128.495c-41.478 0-79.698-22.699-100.415-59.471l-42.89-76.276-16.353-29.041c-.072-.149-.189-.299-.218-.463-5.267-9.357-9.151-19.281-11.712-29.459a121.252 121.252 0 0 1 0-59.009c2.56-10.148 5.98-18.848 11.246-28.25.044.149.612-.91.699-.761l16.352 29.041 16.572 29.505 16.6 29.504 9.718 17.266c20.718 36.772 58.937 59.471 100.415 59.471l118.384.001c41.478 0 79.697-22.699 100.415-59.471l9.704-17.267 16.6-29.504 16.6-29.505 16.338-29.041v.015Z"/><path d="m373.596 595.116 16.6-29.504 16.338 29.042c.073.149.146.268.218.418a117.625 117.625 0 0 1 11.668 29.504 120.931 120.931 0 0 1 0 58.934 118.649 118.649 0 0 1-11.668 29.504c-.029.149-.145.298-.218.462l-59.271 105.317c-20.718 36.772-58.937 59.471-100.416 59.471H128.464c-41.478 0-79.698-22.699-100.415-59.471L-31.18 713.476c-.073-.149-.19-.298-.218-.462-5.267-9.387-9.151-19.312-11.712-29.504a120.95 120.95 0 0 1 0-58.934c2.56-10.193 6.445-20.147 11.712-29.504.073-.15.145-.269.218-.418l16.353-29.042 16.57 29.504 16.6 29.505 9.72 17.266C48.78 678.659 87 701.358 128.478 701.358h118.383c41.478 0 79.698-22.699 100.415-59.471l9.704-17.266 16.6-29.505h.015Z"/><path d="m356.982 624.62 16.6-29.504 16.6 29.459 16.338 29.042c.073.149.146.269.218.418a118.488 118.488 0 0 1 11.668 29.459 121.235 121.235 0 0 1 0 59.009 118.446 118.446 0 0 1-11.901 29.922l-59.271 105.316c-20.717 36.772-58.937 59.471-100.415 59.471H128.436c-41.479 0-79.698-22.699-100.416-59.471l-59.228-105.316a120.202 120.202 0 0 1-11.93-29.922 121.254 121.254 0 0 1 0-59.009c2.561-10.148 6.445-20.072 11.712-29.459.073-.149.146-.269.218-.418l16.353-29.042 16.571-29.459 16.6 29.504 9.719 17.267c20.717 36.772 58.937 59.471 100.415 59.471h118.383c41.479 0 79.698-22.699 100.416-59.471l9.703-17.267h.03Z"/><path d="m347.278 641.887 9.704-17.267 16.6 29.459 16.6 29.46 16.338 29.041c.073.15.146.269.218.418 5.267 9.357 9.151 19.312 11.668 29.504 7.449 29.654 3.448 61.591-11.901 88.886l-59.271 105.317c-20.717 36.772-58.937 59.471-100.415 59.471H128.436c-41.479 0-79.698-22.699-100.416-59.471l-59.227-105.317c-15.379-27.295-19.38-59.232-11.93-88.886 2.56-10.193 6.445-20.147 11.711-29.504.073-.149.146-.268.218-.418l16.353-29.041 16.571-29.46 16.6-29.459 9.719 17.267c20.717 36.772 58.937 59.471 100.415 59.471h118.383c41.479 0 79.698-22.699 100.416-59.471h.029Z"/></g><path d="M108 134c0-11.046 8.954-20 20-20s20 8.954 20 20-8.954 20-20 20-20-8.954-20-20Z" fill="#fff" fill-opacity=".3"/><path d="M108 134c0-11.046 8.954-20 20-20s20 8.954 20 20-8.954 20-20 20-20-8.954-20-20Z" stroke="url(#a)" stroke-width="2"/><path d="M134 124h-3a5.004 5.004 0 0 0-3.536 1.464A5.004 5.004 0 0 0 126 129v3h-3v4h3v8h4v-8h3l1-4h-4v-3a.997.997 0 0 1 1-1h3v-4Z" stroke="#2AD012" stroke-width="2" stroke-linecap="round" stroke-linejoin="round"/><path d="M69 21C69 9.954 77.954 1 89 1s20 8.954 20 20-8.954 20-20 20-20-8.954-20-20Z" fill="#fff" fill-opacity=".3"/><path d="M69 21C69 9.954 77.954 1 89 1s20 8.954 20 20-8.954 20-20 20-20-8.954-20-20Z" stroke="url(#b)" stroke-width="2"/><path d="M88 20v-4m5 4v-4m5-5H80v16h5v4l4-4h5l4-4V11Z" stroke="#2AD012" stroke-width="2" stroke-linecap="round" stroke-linejoin="round"/><path d="M169 73c0-11.046 8.954-20 20-20s20 8.954 20 20-8.954 20-20 20-20-8.954-20-20Z" fill="#fff" fill-opacity=".3"/><path d="M169 73c0-11.046 8.954-20 20-20s20 8.954 20 20-8.954 20-20 20-20-8.954-20-20Z" stroke="url(#c)" stroke-width="2"/><path fill-rule="evenodd" clip-rule="evenodd" d="M180 83h6.75v-4.445H189v2.223h2.25V83H198v-6.667h-2.25v-2.222h-2.25V71.89h2.25v-2.222H198V63h-6.75v2.222H189v2.223h-2.25V63H180v20Z" fill="#5FEB3C"/><path d="M266 21c0-11.046 8.954-20 20-20s20 8.954 20 20-8.954 20-20 20-20-8.954-20-20Z" fill="#fff" fill-opacity=".3"/><path d="M266 21c0-11.046 8.954-20 20-20s20 8.954 20 20-8.954 20-20 20-20-8.954-20-20Z" stroke="url(#d)" stroke-width="2"/><path d="M297.761 16.2s-.234-1.655-.956-2.381c-.914-.957-1.936-.961-2.405-1.017-3.356-.244-8.395-.244-8.395-.244h-.01s-5.039 0-8.395.244c-.469.056-1.491.06-2.405 1.017-.722.726-.951 2.381-.951 2.381S274 18.145 274 20.086v1.819c0 1.94.239 3.886.239 3.886s.234 1.654.952 2.38c.914.957 2.114.924 2.648 1.027 1.922.183 8.161.24 8.161.24s5.044-.01 8.4-.249c.469-.056 1.491-.06 2.405-1.017.722-.727.956-2.381.956-2.381s.239-1.941.239-3.886v-1.819c0-1.94-.239-3.886-.239-3.886Zm-14.241 7.913v-6.746l6.483 3.385-6.483 3.36Z" fill="#2AD012"/><defs><linearGradient id="a" x1="128" y1="113" x2="128" y2="155" gradientUnits="userSpaceOnUse"><stop stop-color="#5FEB3C" stop-opacity="0"/><stop offset="1" stop-color="#5FEB3C"/></linearGradient><linearGradient id="b" x1="89" y1="0" x2="89" y2="42" gradientUnits="userSpaceOnUse"><stop stop-color="#5FEB3C" stop-opacity="0"/><stop offset="1" stop-color="#5FEB3C"/></linearGradient><linearGradient id="c" x1="189" y1="52" x2="189" y2="94" gradientUnits="userSpaceOnUse"><stop stop-color="#5FEB3C" stop-opacity="0"/><stop offset="1" stop-color="#5FEB3C"/></linearGradient><linearGradient id="d" x1="286" y1="0" x2="286" y2="42" gradientUnits="userSpaceOnUse"><stop stop-color="#5FEB3C" stop-opacity="0"/><stop offset="1" stop-color="#5FEB3C"/></linearGradient></defs></svg>