<svg width="712" height="674" fill="none" xmlns="http://www.w3.org/2000/svg"><g opacity=".1" stroke="#55EB3C" stroke-width="2" stroke-miterlimit="10"><path d="m227.358 301.512 98.237-170.152c34.42-59.616 97.94-96.186 166.656-96.216l196.648-.052a188.883 188.883 0 0 1 52.484 7.271c30.848 8.721 59.054 25.061 81.895 47.505 12.193 11.864 22.864 25.496 31.658 40.639.185.162.298.45.446.676l27.135 46.976-54.287.052-88.078.003c-68.716.03-132.236 36.6-166.656 96.216l-98.237 170.152c-34.42 59.616-34.33 132.912.003 192.436l44.036 76.28 27.135 46.976-54.263.01c-.269-.016-.575.031-.808-.048-17.523-.024-34.653-2.469-51.06-7.035a191.32 191.32 0 0 1-82.087-47.17c-12.552-12.21-23.556-26.23-32.516-41.859l-98.314-170.265c-34.333-59.525-34.423-132.82-.003-192.437l-.024.042Z"/><path d="m145.909 254.486 98.236-170.15c34.42-59.618 97.941-96.188 166.657-96.217l196.648-.053c50.737-.037 98.535 19.891 133.931 54.296 12.218 11.821 22.862 25.355 31.717 40.393.297.45.517.94.835 1.402l26.73 46.325 27.566 47.728-88.078.003c-68.716.029-132.237 36.599-166.657 96.216L475.257 444.58c-34.42 59.617-34.33 132.912.003 192.437l44.036 76.279-55.092-.05-53.483.013c-.539-.032-1.072.022-1.632-.022-17.463-.129-34.526-2.592-50.876-7.208-47.506-13.431-88.627-44.923-113.963-88.882l-98.315-170.266c-34.332-59.524-34.422-132.82-.002-192.436l-.024.041Z"/><path d="m309.999 349.222 98.237-170.151c34.419-59.617 97.94-96.187 166.656-96.216l196.648-.053c.497.008 1.036.04 1.569-.014a190.414 190.414 0 0 1 50.17 7.079 191.394 191.394 0 0 1 82.682 47.736 187.676 187.676 0 0 1 31.595 40.602c-.269-.016-.497-.008-.767-.024l-54.25-.011-54.286.052-88.079.003c-68.716.029-132.236 36.599-166.656 96.216l-98.237 170.151c-34.42 59.617-34.33 132.912.003 192.437l44.036 76.279 27.135 46.977 27.122 46.997c.149.226.256.427.405.652-17.482 0-34.611-2.445-50.997-6.998a191.407 191.407 0 0 1-82.681-47.736 193.415 193.415 0 0 1-31.191-39.951c-.22-.489-.517-.94-.773-1.366l-98.314-170.266c-34.333-59.524-34.423-132.82-.003-192.437l-.024.042Z"/><path d="m392.618 396.922 98.237-170.152c34.419-59.616 97.94-96.186 166.656-96.216l143.164-.039 53.484-.014c.269.017.497.009.767.025 17.481 0 34.652 2.469 51.023 7.097a190.94 190.94 0 0 1 82.577 47.676c-16.308-4.592-33.45-7.016-50.961-7.061-.269-.016-.497-.008-.766-.025l-54.251-.011-54.286.052-88.078.003c-68.716.03-132.237 36.6-166.657 96.216L475.29 444.625c-34.419 59.616-34.33 132.912.003 192.437l44.036 76.279 27.135 46.977 27.122 46.997c.149.225.256.427.405.652 8.782 15.163 19.465 28.775 31.559 40.665a190.92 190.92 0 0 1-82.577-47.676c-12.157-11.926-22.881-25.562-31.622-40.701-.148-.225-.255-.427-.404-.652l-26.73-46.325-71.585-123.94c-34.332-59.525-34.422-132.821-.002-192.437l-.012.021ZM1102.8 273.637a187.51 187.51 0 0 0-31.59-40.603 190.861 190.861 0 0 1 82.57 47.676c12.2 11.863 22.87 25.496 31.66 40.639.19.162.3.45.47.687l27.13 46.977 27.57 47.727 43.69 75.664c34.33 59.525 34.42 132.82 0 192.437l-98.23 170.151c-34.42 59.617-97.94 96.187-166.66 96.217l-87.373-.009-55.091-.051-54.263.01c-.269-.016-.575.03-.829-.06-17.523-.025-34.653-2.47-51.06-7.035a190.916 190.916 0 0 1-82.576-47.676c16.407 4.565 33.536 7.011 50.996 6.999.246.058.539.032.83.06l54.262-.01 55.092.051 55.115.009h32.259c68.718-.03 132.238-36.6 166.658-96.217l98.24-170.151c34.42-59.617 34.33-132.912-.01-192.437l-16.14-27.915-27.56-47.728-27.57-47.727-27.13-46.977c-.15-.225-.27-.513-.47-.687l.01-.021Z"/></g><path d="M181 369c0-11.046 8.954-20 20-20s20 8.954 20 20-8.954 20-20 20-20-8.954-20-20Z" fill="#fff" fill-opacity=".3"/><path d="M181 369c0-11.046 8.954-20 20-20s20 8.954 20 20-8.954 20-20 20-20-8.954-20-20Z" stroke="url(#a)" stroke-width="2"/><path d="M207 359h-3a5.004 5.004 0 0 0-3.536 1.464A5.004 5.004 0 0 0 199 364v3h-3v4h3v8h4v-8h3l1-4h-4v-3a.997.997 0 0 1 1-1h3v-4Z" stroke="#2AD012" stroke-width="2" stroke-linecap="round" stroke-linejoin="round"/><path d="M156 202c0-11.046 8.954-20 20-20s20 8.954 20 20-8.954 20-20 20-20-8.954-20-20Z" fill="#fff" fill-opacity=".3"/><path d="M156 202c0-11.046 8.954-20 20-20s20 8.954 20 20-8.954 20-20 20-20-8.954-20-20Z" stroke="url(#b)" stroke-width="2"/><path d="M175 201v-4m5 4v-4m5-5h-18v16h5v4l4-4h5l4-4v-12Z" stroke="#2AD012" stroke-width="2" stroke-linecap="round" stroke-linejoin="round"/><path d="M151 487c0-11.046 8.954-20 20-20s20 8.954 20 20-8.954 20-20 20-20-8.954-20-20Z" fill="#fff" fill-opacity=".3"/><path d="M151 487c0-11.046 8.954-20 20-20s20 8.954 20 20-8.954 20-20 20-20-8.954-20-20Z" stroke="url(#c)" stroke-width="2"/><path fill-rule="evenodd" clip-rule="evenodd" d="M162 497h6.75v-4.444H171v2.222h2.25V497H180v-6.667h-2.25v-2.222h-2.25v-2.222h2.25v-2.222H180V477h-6.75v2.222H171v2.222h-2.25V477H162v20Z" fill="#5FEB3C"/><path d="M101 334c0-11.046 8.954-20 20-20s20 8.954 20 20-8.954 20-20 20-20-8.954-20-20Z" fill="#fff" fill-opacity=".3"/><path d="M101 334c0-11.046 8.954-20 20-20s20 8.954 20 20-8.954 20-20 20-20-8.954-20-20Z" stroke="url(#d)" stroke-width="2"/><path d="M132.761 329.2s-.234-1.655-.956-2.381c-.914-.956-1.936-.961-2.405-1.017-3.356-.244-8.395-.244-8.395-.244h-.01s-5.039 0-8.395.244c-.469.056-1.491.061-2.405 1.017-.722.726-.951 2.381-.951 2.381s-.244 1.945-.244 3.886v1.819c0 1.94.239 3.886.239 3.886s.234 1.654.952 2.381c.914.956 2.114.923 2.648 1.026 1.922.183 8.161.24 8.161.24s5.044-.01 8.4-.249c.469-.056 1.491-.061 2.405-1.017.722-.727.956-2.381.956-2.381s.239-1.941.239-3.886v-1.819c0-1.941-.239-3.886-.239-3.886Zm-14.241 7.913v-6.746l6.483 3.385-6.483 3.361Z" fill="#2AD012"/><defs><linearGradient id="a" x1="201" y1="348" x2="201" y2="390" gradientUnits="userSpaceOnUse"><stop stop-color="#5FEB3C" stop-opacity="0"/><stop offset="1" stop-color="#5FEB3C"/></linearGradient><linearGradient id="b" x1="176" y1="181" x2="176" y2="223" gradientUnits="userSpaceOnUse"><stop stop-color="#5FEB3C" stop-opacity="0"/><stop offset="1" stop-color="#5FEB3C"/></linearGradient><linearGradient id="c" x1="171" y1="466" x2="171" y2="508" gradientUnits="userSpaceOnUse"><stop stop-color="#5FEB3C" stop-opacity="0"/><stop offset="1" stop-color="#5FEB3C"/></linearGradient><linearGradient id="d" x1="121" y1="313" x2="121" y2="355" gradientUnits="userSpaceOnUse"><stop stop-color="#5FEB3C" stop-opacity="0"/><stop offset="1" stop-color="#5FEB3C"/></linearGradient></defs></svg>