<svg width="109" height="38" viewBox="0 0 109 38" fill="none" xmlns="http://www.w3.org/2000/svg">
<path d="M108.077 18.8727C108.077 23.1129 104.547 26.5649 100.22 26.5649H87.2439V22.1836H100.22C102.205 22.1836 103.826 20.7708 103.826 18.871C103.826 16.9712 102.207 15.4396 100.22 15.4396H92.987C91.8539 15.4396 90.7741 15.2022 89.8029 14.7823C88.8317 14.3607 87.9569 13.7463 87.2439 12.9909C85.9266 11.6211 85.1172 9.77635 85.1172 7.74747C85.1172 6.54976 85.3979 5.39508 85.9162 4.37118C87.1681 1.74861 89.889 0.00195312 93.0076 0.00195312H97.7037L100.953 3.54173L101.537 4.13542V0.00367565H105.909V4.36258H92.9887C90.9911 4.36258 89.3724 5.84078 89.3724 7.73887C89.3724 9.63696 90.9911 11.1806 92.9887 11.1806H100.221C102.488 11.1806 104.528 12.1184 105.954 13.6293C107.271 14.9991 108.081 16.8438 108.081 18.8624V18.8727H108.077Z" fill="#000A05"/>
<path d="M4.45106 0.0232069V26.5879H0.0253906V8.13699L4.28919 4.39243L0.0253906 4.40275V0.0214844H4.45106V0.0232069Z" fill="#000A05"/>
<path d="M59.9999 0.0232069V26.5879H55.5846L55.5742 8.13699L59.838 4.39243L55.5846 4.40275V0.0214844H59.9999V0.0232069Z" fill="#000A05"/>
<path d="M45.8815 16.6941L49.6821 13.3918C51.8622 11.4816 52.8025 8.41852 51.7761 5.69958C51.7761 5.69958 51.7658 5.66689 51.7555 5.64624C51.7021 5.48448 51.6366 5.33304 51.5609 5.17128C50.0816 1.92405 47.2971 0.218703 43.8857 0.079315C40.1729 -0.0617942 36.4481 0.0466186 32.7233 0.0466186H32.248V26.6113H36.6203V24.6684L41.8227 20.2235L42.5993 19.5438L47.6501 26.5992H52.5941L45.8695 16.6941H45.8798H45.8815ZM37.4194 18.2032L36.61 18.8296V17.6646H36.6203V4.40379C36.6203 4.40379 41.5747 4.31775 43.9167 4.51221H44.0028C47.1007 4.86842 48.2132 8.71967 45.8695 10.7812L42.5993 13.6292L38.0445 17.6319L37.4176 18.1826V18.205L37.4194 18.2032Z" fill="#000A05"/>
<path d="M20.7506 0.0341797H7.58203V26.5988H21.1501C25.8668 26.5988 29.6777 22.7906 29.6777 18.0755V8.9688C29.6777 4.03858 25.6842 0.0359022 20.7506 0.0359022V0.0341797ZM25.2951 17.7279C25.2951 20.2094 23.2871 22.2159 20.8039 22.2159H11.9629V4.41373H20.6317C23.2114 4.41373 25.2951 6.50627 25.2951 9.07549V17.7279Z" fill="#000A05"/>
<path d="M85.464 18.8725C85.464 23.1126 81.9338 26.5647 77.6063 26.5647H64.6306V22.1834H77.6063C79.5918 22.1834 81.2123 20.7706 81.2123 18.8708C81.2123 16.971 79.5936 15.4394 77.6063 15.4394H70.3737C69.2406 15.4394 68.1608 15.2019 67.1896 14.782C66.2184 14.3604 65.3436 13.7461 64.6306 12.9906C63.3133 11.6209 62.5039 9.77612 62.5039 7.74724C62.5039 6.54953 62.7846 5.39485 63.3029 4.37095C64.5549 1.74838 67.2533 0.0223718 70.3737 0.0223718L75.0697 0L78.3399 3.53978L78.9237 4.13347V0.00172252H83.296V4.36062H70.3754C68.3778 4.36062 66.7591 5.83883 66.7591 7.73692C66.7591 9.63501 68.3778 11.1786 70.3754 11.1786H77.608C79.8742 11.1786 81.9149 12.1165 83.3407 13.6274C84.6581 14.9972 85.4675 16.8419 85.4675 18.8605V18.8708L85.464 18.8725Z" fill="#000A05"/>
<path d="M0 34.5307C0 32.4554 1.27776 31.0615 3.29601 31.0615C4.85619 31.0615 5.97724 31.9977 6.20111 33.4397H5.04045C4.81658 32.5828 4.17253 32.0459 3.24607 32.0459C1.94936 32.0459 1.15033 33.0698 1.15033 34.5307C1.15033 35.9917 1.93042 37.0156 3.21679 37.0156C4.1622 37.0156 4.81658 36.4891 5.03011 35.6218H6.19078C5.97552 37.0638 4.81658 37.9982 3.22712 37.9982C1.23816 37.9982 0 36.625 0 34.5307Z" fill="#000A05"/>
<path d="M12.1869 33.2928C12.1869 34.2083 11.66 34.9396 10.8609 35.2219L12.304 37.9408H11.0555L9.73987 35.4662H8.23824V37.9408H7.11719V31.1211H9.80875C11.2329 31.1211 12.1869 31.9695 12.1869 33.2945V33.2928ZM8.23824 34.4922H9.72093C10.52 34.4922 11.0366 34.0241 11.0366 33.2945C11.0366 32.5649 10.52 32.0968 9.72093 32.0968H8.23824V34.4939V34.4922Z" fill="#000A05"/>
<path d="M17.6464 31.1209V32.1138H14.3125V34.0033H17.0626V34.9687H14.3125V36.9459H17.7635V37.9388H13.1914V31.1191H17.6464V31.1209Z" fill="#000A05"/>
<path d="M20.6886 31.1211H22.0249L24.5701 37.9408H23.3715L22.7275 36.2544H19.9291L19.2954 37.9408H18.1348L20.6886 31.1211ZM22.4141 35.301L21.3223 32.3291L20.2408 35.301H22.4158H22.4141Z" fill="#000A05"/>
<path d="M29.2394 31.1211V32.114H27.1334V37.9408H26.0123V32.114H23.9062V31.1211H29.2394Z" fill="#000A05"/>
<path d="M32.6528 37.9992C30.6931 37.9992 29.3379 36.5279 29.3379 34.5317C29.3379 32.5355 30.6931 31.0625 32.6528 31.0625C34.6125 31.0625 35.9678 32.5338 35.9678 34.5317C35.9678 36.5296 34.6125 37.9992 32.6528 37.9992ZM32.6528 37.0149C33.9495 37.0149 34.8175 35.9721 34.8175 34.53C34.8175 33.0879 33.9495 32.0451 32.6528 32.0451C31.3561 32.0451 30.4882 33.0879 30.4882 34.53C30.4882 35.9721 31.3561 37.0149 32.6528 37.0149Z" fill="#000A05"/>
<path d="M42.0228 33.2928C42.0228 34.2083 41.4959 34.9396 40.6969 35.2219L42.1399 37.9408H40.8915L39.5758 35.4662H38.0742V37.9408H36.9531V31.1211H39.6447C41.0688 31.1211 42.0228 31.9695 42.0228 33.2945V33.2928ZM38.0742 34.4922H39.5569C40.3559 34.4922 40.8725 34.0241 40.8725 33.2945C40.8725 32.5649 40.3559 32.0968 39.5569 32.0968H38.0742V34.4939V34.4922Z" fill="#000A05"/>
<path d="M45.4644 37.0552C46.2737 37.0552 46.8592 36.6938 46.8592 36.0416C46.8592 35.3206 46.148 35.164 45.0649 34.9696C43.9335 34.7751 42.8606 34.4137 42.8606 33.0594C42.8606 31.8703 43.8353 31.0615 45.2887 31.0615C46.8489 31.0615 47.8236 31.9099 47.8718 33.1661H46.7507C46.6629 32.4743 46.117 32.0063 45.2887 32.0063C44.519 32.0063 43.9817 32.3384 43.9817 32.9803C43.9817 33.6824 44.6739 33.8286 45.7468 34.0128C46.8868 34.2176 47.9786 34.5772 47.9786 35.9229C47.9786 37.1499 46.9557 37.9982 45.454 37.9982C43.7578 37.9982 42.7332 37.0724 42.6953 35.7095H43.8267C43.8852 36.508 44.5086 37.0535 45.4644 37.0535V37.0552Z" fill="#000A05"/>
</svg>
