<svg width="744" height="761" fill="none" xmlns="http://www.w3.org/2000/svg"><g opacity=".1" stroke="#55EB3C" stroke-width="2" stroke-miterlimit="10"><path d="M243.979 98.13h256.784c89.971 0 172.873 22.698 217.811 59.471L847.14 262.843c11.834 9.625 20.512 19.848 26.066 30.34 10.288 19.206 10.225 39.353-.252 58.515-5.46 10.193-13.917 20.118-25.31 29.505-.063.149-.315.298-.473.447l-35.439 29.042-35.534-29.042-57.561-47.144c-44.938-36.772-127.84-59.471-217.81-59.471H244.042c-89.97 0-172.872 22.699-217.81 59.471L-31.33 381.65l-35.44 29.042-35.47-29.042c-.158-.149-.41-.298-.473-.447-11.424-9.387-19.85-19.312-25.404-29.505-10.446-19.162-10.54-39.309-.253-58.516 5.618-10.491 14.296-20.714 26.13-30.339L26.231 157.6c44.939-36.772 127.841-59.47 217.811-59.47h-.063Z"/><path d="M243.978 40h256.785c89.97 0 172.872 22.7 217.81 59.471l128.566 105.242c33.198 27.147 41.877 58.889 26.066 88.468-5.396 10.193-13.759 20.073-24.993 29.46-.316.298-.726.567-1.042.88l-34.966 28.624-36.007 29.504-57.561-47.144c-44.938-36.772-127.84-59.471-217.81-59.471H244.042c-89.971 0-172.873 22.699-217.81 59.471l-57.562 47.144-35.944-29.504-34.966-28.624c-.315-.299-.726-.567-1.041-.88-11.266-9.388-19.629-19.282-25.088-29.46-15.842-29.579-7.069-61.321 26.129-88.468L26.231 99.471c44.938-36.772 127.84-59.47 217.81-59.47h-.063Z"/><path d="M243.98 157.108h256.784c89.971 0 172.873 22.699 217.811 59.471l128.566 105.242c.315.269.631.567 1.041.836 11.108 9.237 19.376 19.042 24.773 29.041 10.54 19.356 10.54 39.653 0 59.009-5.46 10.193-13.917 20.117-25.31 29.459-.157-.149-.315-.269-.473-.418l-35.439-29.041-35.534-29.042-57.561-47.144c-44.938-36.772-127.84-59.471-217.81-59.471H244.043c-89.97 0-172.872 22.699-217.81 59.471l-57.56 47.144-35.44 29.042-35.471 29.041c-.157.149-.315.269-.473.418-11.424-9.357-19.85-19.281-25.404-29.459-10.54-19.357-10.54-39.653 0-59.009 5.459-9.999 13.759-19.804 24.836-29.041.41-.269.726-.567 1.041-.836L26.233 216.579c44.938-36.772 127.84-59.471 217.81-59.471h-.063Z"/><path d="M243.981 216.071h256.784c89.971 0 172.873 22.699 217.811 59.471l93.6 76.619 34.965 28.623c.158.149.316.269.474.418 11.424 9.357 19.849 19.311 25.309 29.504 10.54 19.312 10.54 39.623 0 58.934-5.46-10.148-13.917-20.072-25.309-29.459-.158-.15-.316-.269-.474-.418l-35.439-29.042-35.534-29.041-57.561-47.144c-44.938-36.772-127.839-59.471-217.81-59.471H244.013c-89.971 0-172.873 22.699-217.81 59.471L-31.36 381.68l-35.439 29.041-35.47 29.042c-.158.149-.316.268-.474.418-11.424 9.387-19.85 19.311-25.404 29.459-10.54-19.311-10.54-39.622 0-58.934 5.554-10.193 13.98-20.147 25.404-29.504.158-.149.316-.269.474-.418l34.965-28.623 93.505-76.619c44.938-36.772 127.84-59.471 217.811-59.471h-.032ZM847.615 558.107c11.423-9.358 19.849-19.282 25.309-29.46 10.54 19.311 10.54 39.623 0 58.934-5.46 10.193-13.917 20.117-25.309 29.504-.063.149-.316.299-.474.463l-35.439 29.041-36.007 29.505-57.088 46.77c-44.938 36.772-127.839 59.471-217.81 59.471H244.013c-89.971 0-172.873-22.699-217.81-59.471l-57.088-46.771-35.945-29.504-35.47-29.041c-.158-.15-.411-.299-.474-.463-11.424-9.387-19.85-19.311-25.404-29.504-10.54-19.311-10.54-39.623 0-58.934 5.554 10.193 13.98 20.117 25.404 29.46.095.149.316.298.474.462l35.47 29.042 35.944 29.504 36.008 29.504 21.08 17.267c44.938 36.772 127.84 59.471 217.811 59.471h256.784c89.971 0 172.872-22.699 217.81-59.471l21.049-17.267 36.007-29.504 36.008-29.504 35.439-29.042c.158-.149.41-.298.473-.462h.032Z"/><path d="M847.141 558.57c.158-.149.41-.299.474-.463 11.423 9.387 19.849 19.311 25.309 29.46 10.54 19.356 10.54 39.652 0 59.008-5.46 10.193-13.917 20.117-25.309 29.459-.063.15-.316.299-.474.463l-35.439 29.042-93.095 76.275c-44.938 36.772-127.839 59.471-217.81 59.471H244.013c-89.971 0-172.873-22.699-217.81-59.471l-93.033-76.276-35.47-29.041c-.158-.149-.411-.299-.474-.463-11.424-9.357-19.85-19.281-25.404-29.459-10.54-19.356-10.54-39.652 0-59.009 5.554-10.148 12.97-18.848 24.394-28.25.095.149 1.326-.91 1.515-.761l35.47 29.041 35.945 29.505 36.007 29.504 21.08 17.266c44.939 36.772 127.84 59.471 217.811 59.471l256.784.001c89.971 0 172.873-22.699 217.811-59.471l21.049-17.267 36.007-29.504 36.007-29.505 35.439-29.041v.015Z"/><path d="m775.66 617.116 36.007-29.504 35.439 29.042c.158.149.316.268.473.418 11.424 9.357 19.85 19.311 25.31 29.504 10.54 19.311 10.54 39.622 0 58.934-5.46 10.193-13.917 20.117-25.31 29.504-.063.149-.315.298-.473.462L718.541 840.793c-44.938 36.772-127.84 59.471-217.811 59.471H243.946c-89.971 0-172.873-22.699-217.81-59.471l-128.472-105.317c-.157-.149-.41-.298-.473-.462-11.424-9.387-19.85-19.312-25.404-29.504-10.54-19.312-10.54-39.623 0-58.934 5.554-10.193 13.98-20.147 25.404-29.504.158-.15.316-.269.473-.418l35.471-29.042 35.944 29.504 36.007 29.505 21.08 17.266c44.939 36.772 127.841 59.471 217.811 59.471h256.785c89.97 0 172.872-22.699 217.81-59.471l21.049-17.266 36.007-29.505h.032Z"/><path d="m739.622 646.62 36.007-29.504 36.007 29.459 35.439 29.042c.158.149.316.269.474.418 11.424 9.387 19.849 19.311 25.309 29.459 10.54 19.356 10.54 39.653 0 59.009-5.554 10.342-14.138 20.415-25.814 29.922L718.478 899.741c-44.938 36.772-127.84 59.471-217.81 59.471H243.884c-89.971 0-172.873-22.699-217.81-59.471l-128.472-105.316c-11.645-9.507-20.26-19.58-25.877-29.922-10.54-19.356-10.54-39.653 0-59.009 5.554-10.148 13.98-20.072 25.404-29.459.157-.149.315-.269.473-.418l35.47-29.042 35.945-29.459L5.024 646.62l21.08 17.267c44.939 36.772 127.84 59.471 217.811 59.471h256.784c89.971 0 172.873-22.699 217.811-59.471l21.049-17.267h.063Z"/><path d="m718.574 663.887 21.049-17.267 36.007 29.459 36.007 29.46 35.439 29.041c.158.15.316.269.474.418 11.423 9.357 19.849 19.312 25.309 29.504 16.157 29.654 7.479 61.591-25.814 88.886L718.479 958.705c-44.938 36.772-127.84 59.475-217.811 59.475H243.884c-89.97 0-172.872-22.703-217.81-59.475l-128.471-105.317c-33.356-27.295-42.035-59.232-25.877-88.886 5.554-10.193 13.98-20.147 25.404-29.504.157-.149.315-.268.473-.418l35.47-29.041 35.945-29.46L5.025 646.62l21.08 17.267c44.938 36.772 127.84 59.471 217.811 59.471H500.7c89.971 0 172.873-22.699 217.811-59.471h.063Z"/></g><path d="M337 103c0-19.33 15.67-35 35-35s35 15.67 35 35-15.67 35-35 35-35-15.67-35-35Z" fill="#fff" fill-opacity=".3"/><path d="M337 103c0-19.33 15.67-35 35-35s35 15.67 35 35-15.67 35-35 35-35-15.67-35-35Z" stroke="url(#a)" stroke-width="2"/><path fill-rule="evenodd" clip-rule="evenodd" d="M363 113h6.75v-4.444H372v2.222h2.25V113H381v-6.667h-2.25v-2.222h-2.25v-2.222h2.25v-2.222H381V93h-6.75v2.222H372v2.223h-2.25V93H363v20Z" fill="#5FEB3C"/><path d="M624 177c0-19.33 15.67-35 35-35s35 15.67 35 35-15.67 35-35 35-35-15.67-35-35Z" fill="#fff" fill-opacity=".3"/><path d="M624 177c0-19.33 15.67-35 35-35s35 15.67 35 35-15.67 35-35 35-35-15.67-35-35Z" stroke="url(#b)" stroke-width="2"/><path d="M665 167h-3a5.004 5.004 0 0 0-3.536 1.464A5.004 5.004 0 0 0 657 172v3h-3v4h3v8h4v-8h3l1-4h-4v-3a.997.997 0 0 1 1-1h3v-4Z" stroke="#2AD012" stroke-width="2" stroke-linecap="round" stroke-linejoin="round"/><path d="M142 36c0-19.33 15.67-35 35-35s35 15.67 35 35-15.67 35-35 35-35-15.67-35-35Z" fill="#fff" fill-opacity=".3"/><path d="M142 36c0-19.33 15.67-35 35-35s35 15.67 35 35-15.67 35-35 35-35-15.67-35-35Z" stroke="url(#c)" stroke-width="2"/><path d="M176 35v-4m5 4v-4m5-5h-18v16h5v4l4-4h5l4-4V26Z" stroke="#2AD012" stroke-width="2" stroke-linecap="round" stroke-linejoin="round"/><path d="M532 42c0-19.33 15.67-35 35-35s35 15.67 35 35-15.67 35-35 35-35-15.67-35-35Z" fill="#fff" fill-opacity=".3"/><path d="M532 42c0-19.33 15.67-35 35-35s35 15.67 35 35-15.67 35-35 35-35-15.67-35-35Z" stroke="url(#d)" stroke-width="2"/><path d="M578.761 37.2s-.234-1.655-.956-2.381c-.914-.957-1.936-.961-2.405-1.018-3.356-.243-8.395-.243-8.395-.243h-.01s-5.039 0-8.395.243c-.469.057-1.491.061-2.405 1.018-.722.726-.951 2.38-.951 2.38S555 39.146 555 41.087v1.819c0 1.94.239 3.885.239 3.885s.234 1.655.952 2.382c.914.956 2.114.923 2.648 1.026 1.922.183 8.161.24 8.161.24s5.044-.01 8.4-.25c.469-.055 1.491-.06 2.405-1.016.722-.727.956-2.382.956-2.382s.239-1.94.239-3.886v-1.818c0-1.94-.239-3.886-.239-3.886Zm-14.241 7.912v-6.745l6.483 3.384-6.483 3.361Z" fill="#2AD012"/><defs><linearGradient id="a" x1="372" y1="67" x2="372" y2="139" gradientUnits="userSpaceOnUse"><stop stop-color="#5FEB3C" stop-opacity="0"/><stop offset="1" stop-color="#5FEB3C"/></linearGradient><linearGradient id="b" x1="659" y1="141" x2="659" y2="213" gradientUnits="userSpaceOnUse"><stop stop-color="#5FEB3C" stop-opacity="0"/><stop offset="1" stop-color="#5FEB3C"/></linearGradient><linearGradient id="c" x1="177" y1="0" x2="177" y2="72" gradientUnits="userSpaceOnUse"><stop stop-color="#5FEB3C" stop-opacity="0"/><stop offset="1" stop-color="#5FEB3C"/></linearGradient><linearGradient id="d" x1="567" y1="6" x2="567" y2="78" gradientUnits="userSpaceOnUse"><stop stop-color="#5FEB3C" stop-opacity="0"/><stop offset="1" stop-color="#5FEB3C"/></linearGradient></defs></svg>